<svg id="svg" version="1.1" xmlns="http://www.w3.org/2000/svg" xmlns:xlink="http://www.w3.org/1999/xlink" width="400" height="200.11280315848845" viewBox="0, 0, 400,200.11280315848845"><g id="svgg"><path id="path0" d="M293.694 50.250 L 293.694 58.258 303.403 58.258 L 313.113 58.258 313.113 50.250 L 313.113 42.242 303.403 42.242 L 293.694 42.242 293.694 50.250 M249.399 65.116 C 248.656 65.224,248.048 65.384,248.048 65.471 C 248.048 65.559,247.665 65.694,247.197 65.772 C 246.086 65.956,243.396 66.936,242.694 67.413 C 242.390 67.619,241.882 67.899,241.564 68.036 C 240.825 68.354,237.638 70.664,237.638 70.882 C 237.638 70.972,237.232 71.337,236.737 71.693 C 236.241 72.049,235.836 72.446,235.836 72.574 C 235.836 72.703,235.498 73.133,235.085 73.530 C 234.672 73.927,234.181 74.459,233.993 74.713 C 233.668 75.153,233.651 74.961,233.643 70.621 L 233.634 66.066 223.924 66.066 L 214.214 66.066 214.214 111.812 L 214.214 157.558 223.924 157.558 L 233.634 157.558 233.635 141.491 C 233.636 126.047,233.650 125.445,233.992 125.926 C 234.555 126.718,236.164 128.328,236.393 128.328 C 236.507 128.328,236.825 128.595,237.099 128.921 C 237.752 129.696,240.608 131.634,242.018 132.257 C 242.629 132.528,243.178 132.822,243.236 132.911 C 243.414 133.181,245.667 133.888,247.565 134.270 C 248.546 134.467,249.414 134.720,249.492 134.832 C 249.698 135.124,259.027 135.107,259.216 134.814 C 259.295 134.693,259.848 134.530,260.444 134.453 C 262.286 134.213,265.866 133.200,265.866 132.919 C 265.866 132.816,265.964 132.733,266.084 132.733 C 266.515 132.733,269.573 131.291,269.730 131.014 C 269.818 130.858,270.018 130.731,270.174 130.731 C 270.484 130.731,273.496 128.504,274.754 127.345 C 276.897 125.373,279.436 122.174,280.267 120.402 C 280.520 119.862,280.794 119.374,280.876 119.319 C 281.099 119.169,281.621 118.095,282.109 116.783 C 282.347 116.141,282.597 115.571,282.664 115.516 C 282.980 115.256,284.284 110.434,284.284 109.524 C 284.284 109.296,284.363 109.109,284.459 109.109 C 285.389 109.109,285.431 91.601,284.502 90.891 C 284.430 90.836,284.256 90.205,284.115 89.489 C 283.807 87.921,282.856 84.624,282.671 84.484 C 282.598 84.429,282.212 83.580,281.813 82.596 C 281.413 81.612,280.999 80.753,280.891 80.687 C 280.784 80.621,280.565 80.254,280.404 79.873 C 279.624 78.024,276.668 74.343,274.380 72.372 C 273.740 71.822,273.017 71.169,272.772 70.921 C 272.527 70.673,272.268 70.470,272.198 70.470 C 272.127 70.470,271.696 70.200,271.240 69.870 C 270.783 69.540,270.298 69.269,270.162 69.269 C 270.025 69.269,269.869 69.155,269.815 69.016 C 269.762 68.876,269.009 68.454,268.142 68.076 C 267.276 67.699,266.518 67.320,266.459 67.235 C 266.311 67.022,263.626 66.153,262.162 65.844 C 261.502 65.704,260.915 65.525,260.860 65.445 C 260.493 64.920,252.358 64.686,249.399 65.116 M293.694 100.000 L 293.694 133.934 303.403 133.934 L 313.113 133.934 313.113 100.000 L 313.113 66.066 303.403 66.066 L 293.694 66.066 293.694 100.000 M319.520 66.336 C 319.520 66.484,319.698 66.811,319.915 67.062 C 320.133 67.313,320.603 67.980,320.960 68.544 C 321.317 69.108,321.664 69.615,321.732 69.670 C 321.801 69.725,322.198 70.310,322.615 70.971 C 323.033 71.632,323.498 72.244,323.649 72.332 C 323.800 72.420,323.924 72.580,323.924 72.687 C 323.924 72.918,324.859 74.378,325.425 75.031 C 325.646 75.285,325.984 75.781,326.177 76.133 C 326.370 76.485,326.711 76.999,326.934 77.275 C 327.460 77.926,328.955 80.130,329.652 81.281 C 329.951 81.777,330.354 82.362,330.546 82.583 C 330.738 82.803,331.569 83.990,332.393 85.220 C 333.217 86.451,334.080 87.661,334.313 87.911 C 334.545 88.160,334.735 88.451,334.735 88.558 C 334.735 88.665,335.255 89.482,335.892 90.372 C 336.528 91.263,337.174 92.240,337.327 92.543 C 337.480 92.845,337.678 93.093,337.767 93.093 C 337.857 93.093,338.103 93.431,338.314 93.844 C 338.525 94.257,338.932 94.847,339.219 95.155 C 339.505 95.464,339.740 95.746,339.740 95.782 C 339.740 95.988,341.127 98.100,341.592 98.602 C 342.259 99.321,342.270 99.498,341.692 100.143 C 341.208 100.683,341.039 100.925,340.211 102.276 C 339.915 102.757,339.419 103.430,339.106 103.772 C 338.794 104.114,338.539 104.488,338.539 104.604 C 338.539 104.719,338.287 105.127,337.979 105.510 C 337.671 105.893,337.108 106.701,336.728 107.306 C 336.347 107.910,335.882 108.560,335.694 108.749 C 335.506 108.938,335.169 109.452,334.945 109.891 C 334.721 110.330,334.424 110.762,334.285 110.850 C 334.006 111.028,332.733 113.042,332.733 113.305 C 332.733 113.396,332.605 113.520,332.448 113.580 C 332.292 113.640,331.917 114.123,331.616 114.652 C 331.314 115.182,330.967 115.706,330.844 115.816 C 330.605 116.029,328.504 119.093,327.815 120.233 C 327.587 120.609,327.223 121.120,327.005 121.369 C 326.787 121.618,326.491 122.057,326.348 122.345 C 326.205 122.633,325.894 123.083,325.656 123.346 C 325.091 123.972,324.124 125.464,324.124 125.710 C 324.124 125.816,323.954 126.022,323.746 126.168 C 323.538 126.314,323.081 126.927,322.730 127.531 C 322.379 128.135,321.981 128.719,321.845 128.829 C 321.710 128.939,321.245 129.615,320.812 130.330 C 320.378 131.046,319.910 131.704,319.770 131.793 C 319.493 131.969,318.719 133.392,318.719 133.726 C 318.719 133.867,321.995 133.934,328.929 133.934 C 335.079 133.934,339.139 133.860,339.139 133.748 C 339.139 133.646,339.252 133.443,339.390 133.298 C 339.755 132.912,340.741 131.367,340.741 131.180 C 340.741 131.092,341.011 130.724,341.341 130.363 C 341.672 130.001,341.942 129.612,341.942 129.498 C 341.942 129.384,342.425 128.601,343.015 127.758 C 343.605 126.916,344.246 125.888,344.439 125.475 C 344.632 125.063,344.862 124.725,344.949 124.725 C 345.081 124.725,346.263 122.858,346.527 122.231 C 346.571 122.126,346.769 121.866,346.967 121.654 C 347.165 121.441,347.469 120.968,347.643 120.603 C 347.816 120.238,348.088 119.808,348.248 119.648 C 348.408 119.489,348.874 118.786,349.283 118.087 C 349.693 117.389,350.176 116.657,350.358 116.462 C 350.540 116.267,350.946 115.616,351.259 115.017 C 351.573 114.417,351.947 113.882,352.091 113.827 C 352.235 113.771,352.353 113.566,352.355 113.370 C 352.356 113.160,352.556 113.360,352.840 113.857 C 353.105 114.321,353.545 114.996,353.818 115.358 C 354.092 115.720,354.562 116.466,354.865 117.017 C 355.167 117.568,355.536 118.090,355.685 118.178 C 355.834 118.266,355.956 118.428,355.956 118.537 C 355.956 118.646,356.496 119.532,357.157 120.505 C 357.818 121.477,358.358 122.361,358.358 122.469 C 358.358 122.576,358.584 122.907,358.859 123.204 C 359.134 123.501,359.359 123.774,359.359 123.810 C 359.359 123.954,360.695 126.073,361.211 126.747 C 361.514 127.142,361.762 127.553,361.762 127.661 C 361.762 127.768,362.032 128.159,362.362 128.529 C 362.693 128.899,362.963 129.269,362.963 129.352 C 362.963 129.567,364.224 131.604,364.462 131.773 C 364.571 131.851,364.889 132.347,365.168 132.874 L 365.675 133.834 376.231 133.886 C 382.037 133.914,386.787 133.888,386.787 133.828 C 386.787 133.567,385.963 132.132,385.814 132.132 C 385.723 132.132,385.416 131.704,385.130 131.181 C 384.845 130.658,384.446 130.050,384.244 129.830 C 384.043 129.610,383.571 128.934,383.196 128.328 C 382.821 127.723,382.402 127.133,382.266 127.018 C 382.129 126.903,381.690 126.250,381.289 125.566 C 380.889 124.883,380.476 124.324,380.371 124.324 C 380.266 124.324,380.180 124.243,380.180 124.144 C 380.180 124.045,379.815 123.437,379.368 122.793 C 378.922 122.149,378.232 121.126,377.835 120.521 C 377.438 119.915,376.992 119.347,376.845 119.259 C 376.697 119.171,376.577 119.007,376.577 118.895 C 376.577 118.667,375.484 117.025,374.943 116.439 C 374.751 116.232,374.450 115.758,374.273 115.385 C 374.097 115.013,373.730 114.462,373.457 114.161 C 372.996 113.650,371.385 111.317,370.470 109.835 C 370.250 109.478,369.867 108.972,369.620 108.710 C 369.372 108.447,369.169 108.162,369.169 108.075 C 369.169 107.988,368.629 107.162,367.968 106.238 C 367.307 105.315,366.767 104.473,366.767 104.368 C 366.767 104.262,366.549 103.987,366.283 103.756 C 366.017 103.525,365.649 103.017,365.464 102.628 C 365.280 102.239,364.934 101.710,364.696 101.451 C 364.231 100.945,363.163 99.377,363.163 99.199 C 363.163 99.021,364.231 97.453,364.696 96.947 C 364.934 96.689,365.280 96.159,365.464 95.770 C 365.649 95.381,366.017 94.874,366.283 94.642 C 366.549 94.411,366.767 94.134,366.767 94.026 C 366.767 93.918,367.307 93.086,367.968 92.176 C 368.629 91.267,369.169 90.438,369.169 90.334 C 369.169 90.230,369.384 89.930,369.646 89.667 C 369.909 89.404,370.291 88.907,370.497 88.562 C 371.203 87.377,373.256 84.416,373.715 83.921 C 373.967 83.648,374.177 83.326,374.181 83.204 C 374.185 83.082,374.629 82.405,375.167 81.698 C 375.704 80.992,376.264 80.181,376.410 79.897 C 376.557 79.612,376.924 79.125,377.227 78.813 C 377.530 78.502,377.778 78.150,377.778 78.032 C 377.778 77.913,378.025 77.492,378.327 77.096 C 379.317 75.800,380.180 74.488,380.180 74.279 C 380.180 74.166,380.260 74.074,380.358 74.074 C 380.456 74.074,380.900 73.511,381.346 72.823 C 381.791 72.135,382.522 71.044,382.970 70.400 C 383.418 69.756,383.784 69.198,383.784 69.159 C 383.784 69.121,383.986 68.871,384.234 68.603 C 384.705 68.095,385.586 66.560,385.586 66.247 C 385.586 66.141,381.356 66.066,375.419 66.066 L 365.251 66.066 364.873 66.717 C 364.665 67.075,364.435 67.412,364.363 67.467 C 364.291 67.523,363.891 68.153,363.475 68.869 C 363.059 69.585,362.637 70.221,362.538 70.284 C 362.438 70.347,362.196 70.707,361.999 71.085 C 361.446 72.150,361.091 72.707,360.718 73.099 C 360.529 73.298,360.142 73.891,359.858 74.418 C 359.574 74.944,358.990 75.871,358.561 76.476 C 358.131 77.082,357.775 77.677,357.769 77.799 C 357.763 77.920,357.537 78.258,357.266 78.550 C 356.996 78.841,356.631 79.383,356.456 79.753 C 356.280 80.123,355.961 80.615,355.746 80.845 C 355.531 81.076,355.355 81.320,355.355 81.387 C 355.355 81.454,355.085 81.902,354.755 82.382 C 354.424 82.863,354.154 83.347,354.154 83.460 C 354.154 83.572,354.031 83.736,353.881 83.824 C 353.730 83.912,353.422 84.344,353.197 84.785 C 352.787 85.585,352.786 85.585,352.590 85.085 C 352.482 84.810,352.160 84.314,351.873 83.984 C 351.586 83.654,351.352 83.309,351.352 83.218 C 351.351 83.127,350.905 82.388,350.359 81.575 C 349.813 80.763,349.185 79.742,348.963 79.307 C 348.741 78.872,348.484 78.485,348.392 78.447 C 348.300 78.409,347.919 77.838,347.544 77.177 C 347.170 76.517,346.716 75.816,346.535 75.620 C 346.354 75.424,345.960 74.778,345.659 74.184 C 345.359 73.590,344.985 73.054,344.829 72.994 C 344.672 72.935,344.545 72.794,344.545 72.682 C 344.545 72.439,343.371 70.487,342.989 70.095 C 342.842 69.944,342.542 69.438,342.323 68.972 C 342.104 68.506,341.758 67.946,341.554 67.727 C 341.350 67.509,341.037 67.045,340.857 66.698 L 340.530 66.066 330.025 66.066 C 321.351 66.066,319.520 66.113,319.520 66.336 M250.333 81.453 C 250.391 81.548,251.032 81.686,251.756 81.760 C 253.091 81.897,256.412 82.899,256.635 83.233 C 256.702 83.333,257.236 83.673,257.822 83.989 C 258.911 84.576,262.462 88.073,262.462 88.558 C 262.462 88.699,262.646 89.010,262.869 89.250 C 263.291 89.703,263.874 90.933,264.405 92.492 C 264.574 92.988,264.774 93.438,264.851 93.493 C 265.908 94.255,265.908 105.745,264.851 106.507 C 264.774 106.562,264.573 107.012,264.403 107.508 C 263.905 108.961,263.242 110.350,262.838 110.784 C 262.631 111.005,262.462 111.306,262.462 111.452 C 262.462 111.980,258.553 115.657,257.383 116.230 C 256.763 116.533,256.256 116.839,256.256 116.908 C 256.256 117.019,255.754 117.200,253.353 117.954 C 250.942 118.711,243.754 118.006,243.053 116.944 C 242.992 116.853,242.509 116.561,241.979 116.297 C 240.866 115.741,238.177 113.603,237.851 113.013 C 237.649 112.649,237.216 112.017,236.298 110.751 C 236.115 110.497,235.746 109.776,235.479 109.149 C 235.212 108.521,234.829 107.648,234.629 107.207 C 233.265 104.210,233.238 93.675,234.592 92.704 C 234.677 92.643,235.006 91.940,235.323 91.142 C 236.076 89.245,239.300 84.885,239.949 84.885 C 240.022 84.885,242.069 83.534,242.542 83.174 C 243.150 82.710,245.989 81.872,247.396 81.741 C 248.085 81.676,248.649 81.547,248.649 81.453 C 248.649 81.229,250.195 81.229,250.333 81.453 " stroke="none" fill="#3c3c3c" fill-rule="evenodd"></path><path id="path1" d="M96.044 13.855 C 95.687 13.933,95.238 13.949,95.045 13.892 C 94.841 13.830,94.695 13.892,94.695 14.041 C 94.695 14.222,94.633 14.233,94.479 14.079 C 94.350 13.949,94.009 13.920,93.628 14.006 C 93.007 14.146,92.743 14.204,92.643 14.224 C 92.615 14.229,92.097 14.276,91.491 14.329 C 90.044 14.454,86.576 15.153,86.078 15.420 C 85.862 15.535,85.686 15.570,85.686 15.498 C 85.686 15.426,85.554 15.475,85.394 15.608 C 85.234 15.741,85.009 15.792,84.894 15.721 C 84.779 15.650,84.685 15.687,84.685 15.804 C 84.685 15.921,84.505 16.016,84.284 16.016 C 84.064 16.016,83.884 16.108,83.884 16.220 C 83.884 16.332,83.657 16.383,83.379 16.333 C 83.038 16.271,82.738 16.383,82.449 16.679 C 82.215 16.920,82.097 16.982,82.187 16.817 C 82.307 16.597,82.245 16.609,81.954 16.864 C 81.735 17.055,81.233 17.235,80.838 17.264 C 80.442 17.294,80.158 17.381,80.206 17.459 C 80.331 17.661,79.162 18.231,78.972 18.060 C 78.886 17.982,78.871 18.017,78.940 18.138 C 79.009 18.258,78.775 18.628,78.421 18.959 C 77.832 19.509,75.912 21.648,75.676 22.018 C 75.545 22.222,73.526 24.518,72.845 25.236 C 72.555 25.543,72.066 26.123,71.758 26.526 C 71.451 26.929,70.923 27.552,70.585 27.910 C 70.247 28.268,69.565 29.039,69.069 29.623 C 68.574 30.206,67.877 30.989,67.520 31.362 C 66.804 32.111,66.827 32.036,66.357 35.135 C 66.173 36.346,65.989 37.518,65.947 37.738 C 65.540 39.875,64.264 52.163,64.264 53.946 L 64.264 54.656 65.015 53.809 C 65.428 53.344,66.036 52.652,66.366 52.272 C 66.697 51.892,67.102 51.435,67.267 51.258 C 67.432 51.081,67.868 50.579,68.235 50.142 C 69.185 49.014,70.237 47.801,71.220 46.698 C 71.688 46.174,72.383 45.385,72.765 44.945 C 73.147 44.505,73.868 43.712,74.367 43.184 C 74.867 42.656,75.277 42.160,75.279 42.083 C 75.281 42.005,75.663 41.530,76.130 41.026 C 77.660 39.371,79.376 37.395,79.560 37.076 C 79.660 36.903,80.065 36.427,80.461 36.019 C 80.857 35.610,81.542 34.865,81.982 34.364 C 82.422 33.862,83.165 33.020,83.633 32.492 C 84.100 31.964,84.796 31.171,85.178 30.731 C 85.561 30.290,86.196 29.579,86.589 29.150 C 86.983 28.721,87.417 28.211,87.553 28.017 C 87.689 27.822,88.339 27.057,88.996 26.317 C 89.653 25.577,90.254 24.862,90.333 24.729 C 90.412 24.595,90.848 24.089,91.302 23.604 C 92.083 22.772,92.709 22.068,94.451 20.066 C 94.860 19.596,95.533 18.866,95.946 18.445 C 96.359 18.024,96.696 17.598,96.695 17.498 C 96.694 17.399,97.005 17.002,97.385 16.617 C 98.770 15.211,99.700 14.163,99.700 14.006 C 99.700 13.793,96.869 13.676,96.044 13.855 M101.301 13.814 C 101.301 13.924,101.532 14.014,101.814 14.014 C 102.104 14.014,102.272 13.927,102.202 13.814 C 102.134 13.704,101.904 13.614,101.690 13.614 C 101.476 13.614,101.301 13.704,101.301 13.814 M102.726 13.903 C 103.015 14.194,104.905 14.443,104.905 14.190 C 104.905 14.093,104.837 14.008,104.755 14.000 C 104.672 13.992,104.154 13.939,103.604 13.882 C 103.053 13.826,102.658 13.835,102.726 13.903 M106.203 14.419 C 106.152 14.502,106.380 14.609,106.709 14.658 C 107.038 14.706,107.307 14.681,107.307 14.603 C 107.307 14.402,106.316 14.236,106.203 14.419 M67.514 27.628 C 67.514 28.013,67.555 28.171,67.605 27.978 C 67.656 27.785,67.656 27.470,67.605 27.277 C 67.555 27.085,67.514 27.242,67.514 27.628 M64.985 60.007 C 64.919 60.073,64.866 60.224,64.868 60.344 C 64.870 60.463,64.958 60.425,65.065 60.260 C 65.194 60.060,65.260 60.043,65.262 60.210 C 65.264 60.348,65.355 60.460,65.465 60.460 C 65.576 60.460,65.666 60.380,65.666 60.282 C 65.666 60.057,65.145 59.847,64.985 60.007 M156.807 99.812 C 156.512 100.132,156.487 100.300,156.735 100.300 C 156.906 100.300,157.226 99.698,157.112 99.591 C 157.082 99.563,156.944 99.662,156.807 99.812 M155.033 101.808 C 154.850 102.087,154.751 102.365,154.813 102.427 C 154.875 102.489,155.070 102.261,155.246 101.921 C 155.632 101.174,155.495 101.102,155.033 101.808 M160.160 101.576 C 160.160 101.811,161.636 105.821,161.754 105.906 C 161.831 105.961,162.180 106.812,162.529 107.797 C 162.879 108.781,163.232 109.637,163.314 109.698 C 163.396 109.760,163.812 110.846,164.237 112.112 C 164.663 113.378,165.083 114.460,165.171 114.516 C 165.311 114.604,166.400 117.493,166.718 118.619 C 166.781 118.839,166.908 119.070,167.002 119.132 C 167.095 119.195,167.490 120.183,167.880 121.329 C 168.270 122.475,168.659 123.460,168.746 123.518 C 168.833 123.576,168.955 123.804,169.017 124.024 C 169.331 125.133,170.424 128.038,170.561 128.127 C 170.647 128.183,171.048 129.171,171.452 130.323 C 171.855 131.475,172.254 132.466,172.338 132.525 C 172.421 132.584,172.839 133.669,173.266 134.935 C 173.693 136.201,174.110 137.283,174.192 137.339 C 174.323 137.428,175.425 140.374,175.728 141.441 C 175.790 141.662,175.916 141.892,176.008 141.953 C 176.099 142.014,176.460 142.870,176.810 143.855 C 177.160 144.840,177.509 145.691,177.586 145.746 C 177.663 145.801,178.063 146.837,178.475 148.048 C 178.887 149.259,179.317 150.308,179.430 150.379 C 179.543 150.450,179.645 150.788,179.657 151.130 C 179.683 151.845,179.873 151.926,180.180 151.351 C 180.298 151.131,180.332 150.951,180.256 150.951 C 180.180 150.951,180.278 150.774,180.474 150.558 C 180.670 150.342,180.775 150.022,180.707 149.847 C 180.640 149.672,180.668 149.580,180.769 149.642 C 180.870 149.705,181.016 149.552,181.094 149.302 C 181.171 149.053,181.297 148.804,181.372 148.749 C 181.707 148.504,183.038 144.595,182.876 144.333 C 182.826 144.252,182.922 144.134,183.089 144.069 C 183.285 143.994,183.361 143.779,183.304 143.463 C 183.252 143.178,183.322 142.932,183.471 142.875 C 183.612 142.821,183.800 142.386,183.889 141.909 C 184.137 140.579,184.146 140.534,184.485 139.039 C 184.884 137.273,185.006 136.552,184.998 135.996 C 184.994 135.754,185.084 135.498,185.198 135.428 C 185.337 135.342,185.328 135.207,185.170 135.017 C 185.041 134.862,185.023 134.735,185.130 134.735 C 185.239 134.735,185.302 134.214,185.273 133.543 C 185.238 132.711,185.307 132.280,185.504 132.117 C 185.659 131.988,185.784 131.781,185.783 131.657 C 185.781 131.533,185.691 131.567,185.582 131.732 C 185.430 131.961,185.392 131.889,185.420 131.431 C 185.458 130.809,185.039 129.304,184.778 129.129 C 184.697 129.074,184.292 128.038,183.880 126.827 C 183.468 125.616,183.061 124.580,182.976 124.525 C 182.844 124.439,181.796 121.651,181.434 120.420 C 181.369 120.200,181.242 119.970,181.151 119.910 C 181.061 119.849,180.725 119.044,180.405 118.120 C 179.795 116.362,179.661 116.197,177.477 114.536 C 176.927 114.117,176.251 113.584,175.976 113.353 C 174.807 112.368,172.959 110.898,171.371 109.688 C 170.435 108.975,169.489 108.242,169.269 108.059 C 169.049 107.876,168.103 107.172,167.167 106.495 C 166.231 105.818,165.240 105.092,164.965 104.882 C 164.690 104.672,164.104 104.259,163.664 103.963 C 163.223 103.668,162.638 103.236,162.362 103.003 C 161.775 102.507,160.160 101.460,160.160 101.576 M153.635 103.334 L 153.253 103.766 153.804 103.411 C 154.371 103.046,154.479 102.903,154.185 102.903 C 154.092 102.903,153.844 103.097,153.635 103.334 M182.482 118.847 C 183.502 119.752,183.877 120.016,183.484 119.551 C 183.266 119.293,182.906 118.989,182.685 118.876 C 182.463 118.762,182.372 118.750,182.482 118.847 M17.918 148.902 C 18.028 148.983,18.123 149.139,18.129 149.249 C 18.175 150.076,18.752 151.003,18.752 150.250 C 18.752 150.085,18.670 149.950,18.569 149.950 C 18.468 149.950,18.425 149.837,18.475 149.700 C 18.596 149.362,18.263 148.748,17.961 148.752 C 17.809 148.754,17.793 148.810,17.918 148.902 M18.855 151.251 C 18.981 151.527,19.164 151.752,19.263 151.752 C 19.362 151.752,19.387 151.842,19.319 151.952 C 19.251 152.062,19.291 152.152,19.408 152.152 C 19.732 152.152,19.660 151.554,19.319 151.424 C 19.154 151.360,19.019 151.183,19.019 151.030 C 19.019 150.876,18.931 150.751,18.823 150.751 C 18.704 150.751,18.717 150.947,18.855 151.251 M19.749 152.304 C 19.698 152.388,19.793 152.771,19.961 153.155 C 20.148 153.585,20.305 153.748,20.367 153.580 C 20.423 153.430,20.364 153.242,20.235 153.162 C 20.106 153.082,19.985 152.822,19.967 152.585 C 19.932 152.117,19.895 152.069,19.749 152.304 M179.179 152.341 C 179.179 152.732,179.120 152.852,178.822 153.070 C 178.562 153.260,178.564 153.287,178.835 153.287 C 179.210 153.287,179.655 152.423,179.372 152.248 C 179.266 152.182,179.179 152.224,179.179 152.341 M20.624 154.304 C 20.622 154.552,20.711 154.755,20.821 154.755 C 21.072 154.755,21.072 154.542,20.821 154.154 C 20.664 153.911,20.626 153.940,20.624 154.304 M177.985 154.541 C 177.764 154.954,177.699 155.500,177.895 155.305 C 177.959 155.241,178.013 155.113,178.014 155.022 C 178.016 154.930,178.102 154.697,178.205 154.505 C 178.308 154.312,178.347 154.154,178.292 154.154 C 178.237 154.154,178.099 154.328,177.985 154.541 M20.988 154.854 C 20.914 154.928,21.004 155.155,21.188 155.358 C 21.878 156.122,22.121 156.450,22.070 156.552 C 22.042 156.609,22.155 156.815,22.321 157.009 C 22.487 157.203,22.623 157.420,22.623 157.491 C 22.623 157.823,23.674 158.951,23.871 158.830 C 24.014 158.741,24.046 158.812,23.963 159.031 C 23.874 159.261,24.078 159.620,24.601 160.160 C 25.023 160.595,25.321 160.998,25.264 161.056 C 25.206 161.114,25.264 161.161,25.392 161.161 C 25.521 161.161,25.626 161.272,25.626 161.408 C 25.626 161.647,26.294 162.378,28.293 164.325 C 28.824 164.842,29.492 165.513,29.777 165.816 C 30.063 166.119,30.372 166.366,30.464 166.366 C 30.555 166.366,30.811 166.547,31.031 166.767 C 31.251 166.987,31.374 167.167,31.304 167.167 C 31.234 167.167,31.406 167.347,31.686 167.568 C 31.966 167.788,32.328 167.968,32.490 167.968 C 32.866 167.968,33.276 168.454,33.081 168.669 C 33.000 168.759,33.052 168.764,33.199 168.679 C 33.500 168.505,34.294 169.233,34.072 169.480 C 33.996 169.565,34.038 169.574,34.166 169.501 C 34.513 169.303,35.035 169.566,35.038 169.941 C 35.041 170.203,35.076 170.215,35.214 169.997 C 35.346 169.790,35.407 169.784,35.470 169.972 C 35.552 170.221,37.485 170.538,43.443 171.283 C 45.040 171.482,46.392 171.711,46.447 171.791 C 46.503 171.871,47.828 172.094,49.392 172.286 C 50.956 172.479,52.191 172.710,52.136 172.799 C 52.027 172.975,53.933 172.298,56.156 171.371 C 56.927 171.049,58.684 170.324,60.060 169.760 C 62.627 168.707,64.975 167.661,68.669 165.925 C 73.268 163.764,74.640 163.054,74.592 162.863 C 74.565 162.753,72.162 162.353,69.253 161.975 C 66.344 161.597,63.919 161.228,63.864 161.154 C 63.809 161.081,61.151 160.679,57.958 160.262 C 54.765 159.844,52.107 159.443,52.052 159.369 C 51.966 159.255,48.046 158.703,41.642 157.904 C 40.706 157.787,39.895 157.630,39.840 157.554 C 39.785 157.479,38.614 157.271,37.237 157.093 C 29.544 156.098,27.919 155.865,27.828 155.747 C 27.773 155.676,26.557 155.464,25.125 155.276 C 23.694 155.088,22.207 154.887,21.822 154.828 C 21.436 154.768,21.061 154.781,20.988 154.854 M75.660 156.206 C 75.528 156.638,75.569 156.890,75.771 156.890 C 75.915 156.890,75.980 156.735,75.925 156.523 C 75.842 156.206,75.709 156.047,75.660 156.206 M176.800 156.434 C 176.787 156.642,176.628 156.922,176.446 157.054 C 176.224 157.217,176.188 157.341,176.336 157.433 C 176.613 157.604,177.033 156.850,176.913 156.396 C 176.837 156.107,176.820 156.113,176.800 156.434 M76.830 160.193 C 76.701 160.530,76.968 161.105,77.127 160.832 C 77.182 160.738,77.164 160.487,77.087 160.275 C 76.973 159.960,76.926 159.945,76.830 160.193 " stroke="none" fill="#0474b4" fill-rule="evenodd"></path><path id="path2" d="M113.717 16.178 C 113.715 16.322,113.633 16.390,113.534 16.329 C 113.367 16.226,110.702 19.011,110.536 19.463 C 110.496 19.573,110.113 19.980,109.686 20.366 C 109.258 20.752,108.909 21.161,108.909 21.275 C 108.909 21.390,108.549 21.792,108.108 22.169 C 107.668 22.546,107.307 22.967,107.307 23.105 C 107.307 23.243,106.947 23.646,106.507 24.000 C 106.066 24.354,105.706 24.767,105.706 24.918 C 105.706 25.068,105.345 25.477,104.905 25.826 C 104.464 26.175,104.104 26.583,104.104 26.734 C 104.104 26.885,103.744 27.298,103.303 27.652 C 102.863 28.006,102.503 28.406,102.503 28.541 C 102.503 28.677,102.187 29.064,101.802 29.403 C 101.416 29.741,101.101 30.093,101.101 30.185 C 101.101 30.277,100.786 30.658,100.400 31.031 C 100.015 31.405,99.700 31.783,99.700 31.872 C 99.700 31.960,99.339 32.359,98.899 32.757 C 98.458 33.154,98.098 33.574,98.098 33.688 C 98.098 33.802,97.738 34.204,97.297 34.581 C 96.857 34.958,96.496 35.363,96.496 35.482 C 96.496 35.600,96.136 36.006,95.696 36.383 C 95.255 36.760,94.895 37.186,94.895 37.329 C 94.895 37.473,94.580 37.831,94.194 38.125 C 93.809 38.419,93.493 38.785,93.493 38.940 C 93.493 39.094,93.133 39.510,92.693 39.864 C 92.252 40.218,91.892 40.620,91.892 40.759 C 91.892 40.897,91.532 41.318,91.091 41.695 C 90.651 42.072,90.290 42.474,90.290 42.589 C 90.290 42.703,89.930 43.122,89.489 43.520 C 89.049 43.918,88.689 44.316,88.689 44.405 C 88.689 44.493,88.373 44.872,87.988 45.245 C 87.603 45.619,87.287 45.997,87.287 46.086 C 87.287 46.175,86.927 46.573,86.486 46.971 C 86.046 47.369,85.686 47.796,85.686 47.921 C 85.686 48.046,85.370 48.400,84.985 48.707 C 84.600 49.015,84.284 49.390,84.284 49.541 C 84.284 49.692,83.924 50.102,83.483 50.450 C 83.043 50.799,82.683 51.208,82.683 51.359 C 82.683 51.509,82.322 51.922,81.882 52.276 C 81.441 52.630,81.081 53.036,81.081 53.177 C 81.081 53.319,80.721 53.724,80.280 54.078 C 79.840 54.432,79.479 54.835,79.479 54.973 C 79.479 55.111,79.119 55.533,78.679 55.910 C 78.238 56.287,77.878 56.688,77.878 56.803 C 77.878 56.917,77.518 57.336,77.077 57.734 C 76.637 58.132,76.276 58.531,76.276 58.621 C 76.276 58.710,76.006 59.043,75.676 59.359 C 75.345 59.676,75.075 60.022,75.075 60.128 C 75.075 60.235,74.719 60.627,74.284 61.000 C 73.474 61.692,73.373 62.297,74.090 62.159 C 74.301 62.118,74.474 62.167,74.474 62.267 C 74.474 62.368,74.624 62.392,74.808 62.322 C 75.057 62.226,75.098 62.265,74.969 62.478 C 74.823 62.721,74.848 62.723,75.137 62.488 C 75.357 62.309,75.475 62.292,75.475 62.438 C 75.475 62.562,75.612 62.663,75.778 62.663 C 75.945 62.663,76.238 62.747,76.429 62.850 C 76.620 62.953,77.627 63.233,78.666 63.472 C 79.705 63.712,80.696 63.986,80.868 64.082 C 81.040 64.178,82.082 64.491,83.183 64.778 C 85.204 65.304,88.927 66.443,91.692 67.381 C 92.518 67.662,94.004 68.151,94.995 68.470 C 97.583 69.301,101.933 70.826,102.402 71.066 C 102.623 71.179,103.614 71.548,104.605 71.886 C 105.596 72.224,106.606 72.630,106.850 72.787 C 107.094 72.945,107.455 73.100,107.651 73.133 C 107.847 73.166,108.213 73.305,108.463 73.442 C 108.713 73.580,109.005 73.638,109.113 73.571 C 109.221 73.504,109.309 73.545,109.309 73.662 C 109.309 73.778,109.495 73.874,109.722 73.874 C 109.950 73.874,110.078 73.783,110.008 73.670 C 109.939 73.559,109.798 73.519,109.696 73.582 C 109.118 73.939,109.647 72.715,110.416 71.914 C 110.914 71.396,111.635 70.611,112.018 70.170 C 112.401 69.730,113.097 68.941,113.564 68.417 C 114.607 67.248,115.666 66.024,116.550 64.966 C 116.917 64.527,117.533 63.821,117.918 63.397 C 118.303 62.974,118.683 62.514,118.761 62.376 C 118.840 62.237,119.276 61.727,119.731 61.242 C 120.546 60.372,121.258 59.569,122.823 57.755 C 123.263 57.244,123.939 56.475,124.324 56.046 C 124.710 55.616,125.430 54.799,125.926 54.229 C 126.421 53.660,127.121 52.881,127.480 52.500 C 127.840 52.118,128.200 51.692,128.281 51.553 C 128.362 51.414,129.014 50.647,129.730 49.850 C 130.445 49.052,131.097 48.286,131.178 48.147 C 131.259 48.008,131.620 47.581,131.979 47.200 C 132.339 46.818,133.038 46.036,133.534 45.462 C 134.029 44.888,134.750 44.068,135.135 43.641 C 135.521 43.213,136.196 42.442,136.637 41.928 C 137.077 41.414,137.779 40.630,138.196 40.185 C 138.612 39.741,139.018 39.268,139.096 39.135 C 139.175 39.001,139.780 38.286,140.440 37.544 C 141.101 36.803,141.784 35.925,141.958 35.595 L 142.274 34.993 141.064 33.763 C 140.399 33.086,139.586 32.330,139.258 32.082 C 138.930 31.834,138.724 31.632,138.802 31.632 C 138.982 31.632,131.892 25.390,130.489 24.312 C 129.538 23.583,127.681 22.332,125.726 21.104 C 124.537 20.358,121.901 19.021,120.220 18.313 C 119.339 17.942,118.265 17.455,117.833 17.231 C 117.200 16.903,116.990 16.872,116.744 17.071 C 116.547 17.230,116.488 17.237,116.577 17.088 C 116.737 16.821,115.816 16.531,115.475 16.742 C 115.332 16.830,115.311 16.786,115.414 16.618 C 115.538 16.418,115.449 16.390,115.028 16.495 C 114.626 16.596,114.521 16.568,114.631 16.390 C 114.736 16.219,114.673 16.190,114.413 16.289 C 114.194 16.373,113.980 16.327,113.883 16.173 C 113.751 15.965,113.719 15.966,113.717 16.178 M142.271 35.390 C 142.140 35.601,143.474 36.920,144.007 37.107 C 144.227 37.184,144.313 37.333,144.225 37.486 C 144.145 37.624,144.154 37.671,144.244 37.589 C 144.334 37.508,144.543 37.553,144.708 37.689 C 144.974 37.909,144.976 37.885,144.731 37.491 C 144.578 37.245,144.202 36.957,143.895 36.850 C 143.588 36.743,143.349 36.584,143.364 36.496 C 143.440 36.046,143.308 35.824,142.997 35.877 C 142.807 35.909,142.650 35.831,142.647 35.702 C 142.641 35.372,142.404 35.174,142.271 35.390 M146.146 39.139 C 146.520 39.525,146.870 39.840,146.925 39.840 C 146.980 39.840,146.720 39.525,146.346 39.139 C 145.973 38.754,145.622 38.438,145.567 38.438 C 145.512 38.438,145.773 38.754,146.146 39.139 M64.719 46.446 C 64.719 46.942,64.758 47.145,64.806 46.897 C 64.854 46.649,64.854 46.244,64.806 45.996 C 64.758 45.748,64.719 45.951,64.719 46.446 M64.519 48.448 C 64.519 48.944,64.558 49.147,64.606 48.899 C 64.653 48.651,64.653 48.246,64.606 47.998 C 64.558 47.750,64.519 47.953,64.519 48.448 M64.322 50.350 C 64.323 50.901,64.362 51.102,64.408 50.798 C 64.454 50.494,64.453 50.043,64.405 49.797 C 64.358 49.551,64.320 49.800,64.322 50.350 M63.726 58.759 C 63.727 59.419,63.764 59.666,63.809 59.306 C 63.853 58.946,63.852 58.405,63.807 58.105 C 63.761 57.804,63.725 58.098,63.726 58.759 M112.112 74.892 C 112.112 75.011,112.224 75.071,112.361 75.026 C 112.497 74.980,112.729 75.063,112.875 75.209 C 113.022 75.356,113.238 75.475,113.355 75.475 C 113.472 75.475,113.338 75.295,113.058 75.075 C 112.496 74.633,112.112 74.558,112.112 74.892 M118.804 77.854 C 118.864 77.951,119.117 78.081,119.366 78.144 C 119.804 78.254,119.806 78.248,119.431 77.968 C 119.001 77.646,118.635 77.580,118.804 77.854 M159.960 101.174 C 159.960 101.229,160.230 101.466,160.561 101.702 C 160.891 101.937,161.161 102.084,161.161 102.029 C 161.161 101.974,160.891 101.737,160.561 101.502 C 160.230 101.266,159.960 101.119,159.960 101.174 M16.920 104.154 C 16.862 104.402,16.792 104.830,16.766 105.105 C 16.739 105.380,16.627 105.680,16.517 105.771 C 16.395 105.871,16.428 105.906,16.599 105.860 C 16.878 105.785,16.931 105.638,17.143 104.354 C 17.263 103.622,17.082 103.459,16.920 104.154 M16.416 106.179 C 16.416 106.546,15.940 108.659,15.823 108.809 C 15.738 108.919,15.556 109.640,15.418 110.410 C 15.281 111.181,15.098 112.046,15.013 112.333 C 14.927 112.619,14.740 113.678,14.597 114.685 C 14.454 115.692,14.280 116.517,14.209 116.517 C 14.139 116.517,14.078 116.629,14.074 116.767 C 14.071 116.904,14.006 117.377,13.931 117.818 C 13.294 121.559,13.052 127.652,13.389 131.443 C 13.624 134.081,13.686 134.545,13.955 135.636 C 14.138 136.380,14.162 136.527,14.191 137.073 C 14.204 137.313,14.350 137.645,14.516 137.811 C 14.704 137.999,14.741 138.160,14.616 138.238 C 14.490 138.316,14.482 138.490,14.594 138.701 C 14.694 138.887,14.775 139.108,14.774 139.193 C 14.768 139.712,15.061 140.736,15.192 140.655 C 15.278 140.602,15.349 140.824,15.349 141.150 C 15.349 141.946,14.921 141.828,20.521 142.569 C 23.273 142.932,25.571 143.287,25.626 143.356 C 25.681 143.425,28.383 143.828,31.632 144.252 C 34.880 144.676,37.583 145.078,37.638 145.146 C 37.693 145.213,38.909 145.425,40.340 145.616 C 47.975 146.633,49.358 146.835,49.449 146.947 C 49.505 147.014,52.207 147.416,55.455 147.840 C 58.704 148.264,61.406 148.667,61.461 148.737 C 61.554 148.853,72.601 150.367,73.273 150.356 C 73.459 150.352,73.574 150.159,73.574 149.850 C 73.574 149.575,73.496 149.349,73.402 149.349 C 73.307 149.349,73.287 149.122,73.357 148.845 C 73.426 148.567,73.372 148.139,73.236 147.894 C 73.100 147.648,73.012 147.335,73.040 147.197 C 73.068 147.060,72.986 146.947,72.857 146.947 C 72.679 146.947,72.679 146.880,72.857 146.666 C 73.000 146.494,73.013 146.358,72.893 146.316 C 72.784 146.278,72.512 145.435,72.287 144.444 C 72.062 143.453,71.647 141.787,71.365 140.741 C 71.083 139.695,70.538 137.397,70.154 135.636 C 69.770 133.874,69.414 132.252,69.361 132.032 C 69.309 131.812,68.957 130.010,68.579 128.028 C 68.201 126.046,67.800 124.109,67.688 123.724 C 67.529 123.176,66.405 115.873,66.018 112.870 C 65.936 112.233,65.677 111.896,65.641 112.379 C 65.627 112.563,65.598 112.825,65.577 112.963 C 65.556 113.101,65.622 113.383,65.724 113.591 C 65.884 113.918,65.846 113.953,65.437 113.853 C 65.177 113.790,64.402 113.676,63.714 113.600 C 63.026 113.524,62.462 113.402,62.462 113.328 C 62.462 113.254,61.584 113.085,60.511 112.952 C 55.458 112.325,50.541 111.619,50.450 111.507 C 50.360 111.395,48.839 111.179,41.041 110.173 C 39.665 109.996,38.493 109.789,38.438 109.713 C 38.383 109.638,37.573 109.480,36.637 109.364 C 30.156 108.555,26.312 108.011,26.226 107.892 C 26.171 107.816,24.189 107.514,21.822 107.222 C 19.454 106.930,17.270 106.563,16.967 106.408 C 16.664 106.252,16.416 106.149,16.416 106.179 M149.958 108.008 C 149.954 108.118,149.619 108.472,149.216 108.794 C 148.812 109.116,148.546 109.275,148.625 109.147 C 148.715 109.002,148.668 108.952,148.502 109.016 C 148.355 109.072,148.103 109.332,147.941 109.593 C 147.780 109.854,147.269 110.381,146.806 110.766 C 146.344 111.150,146.014 111.512,146.073 111.572 C 146.132 111.631,145.972 111.791,145.718 111.927 C 145.463 112.063,144.211 113.224,142.935 114.506 C 141.659 115.788,139.587 117.779,138.330 118.929 C 137.074 120.080,135.713 121.341,135.306 121.733 C 134.472 122.535,129.429 126.895,126.727 129.149 C 126.341 129.470,125.666 130.045,125.225 130.427 C 124.785 130.808,123.953 131.461,123.378 131.877 C 122.413 132.573,121.927 133.328,122.612 133.065 C 122.896 132.956,123.106 133.393,123.947 135.836 C 124.098 136.276,124.278 136.682,124.347 136.737 C 124.415 136.792,124.802 137.779,125.206 138.931 C 125.609 140.083,126.012 141.074,126.100 141.134 C 126.189 141.193,126.313 141.421,126.375 141.642 C 126.654 142.624,127.810 145.655,127.940 145.746 C 128.019 145.801,128.420 146.837,128.832 148.048 C 129.244 149.259,129.646 150.295,129.724 150.350 C 129.803 150.405,130.212 151.441,130.634 152.653 C 131.056 153.864,131.467 154.900,131.547 154.955 C 131.685 155.050,132.350 156.766,132.745 158.044 C 132.844 158.367,133.000 158.682,133.091 158.745 C 133.182 158.807,133.448 159.444,133.682 160.160 C 134.361 162.239,134.824 163.455,134.978 163.571 C 135.057 163.630,135.452 164.621,135.856 165.773 C 136.259 166.925,136.653 167.913,136.732 167.968 C 136.810 168.023,137.219 169.059,137.641 170.270 C 138.063 171.481,138.467 172.518,138.537 172.573 C 138.608 172.628,138.999 173.619,139.406 174.775 C 139.813 175.931,140.234 176.907,140.343 176.944 C 140.452 176.980,140.541 177.121,140.541 177.256 C 140.541 177.391,140.759 178.059,141.026 178.741 C 141.396 179.685,141.447 179.980,141.238 179.980 C 141.088 179.980,140.913 180.064,140.850 180.166 C 140.685 180.432,141.593 180.275,143.443 179.717 C 144.324 179.451,145.180 179.199,145.345 179.157 C 145.511 179.114,145.691 179.031,145.746 178.972 C 145.828 178.883,149.565 177.673,150.250 177.513 C 150.360 177.487,150.551 177.403,150.674 177.327 C 150.796 177.250,151.652 176.909,152.575 176.569 C 154.116 176.001,158.324 174.026,158.559 173.761 C 158.614 173.698,159.199 173.342,159.860 172.968 C 160.521 172.595,161.151 172.216,161.261 172.127 C 161.371 172.037,162.047 171.594,162.763 171.142 C 163.478 170.689,164.109 170.255,164.164 170.177 C 164.219 170.098,164.625 169.772,165.065 169.451 C 166.139 168.670,166.842 168.065,168.099 166.842 C 168.679 166.278,169.187 165.850,169.229 165.892 C 169.270 165.933,169.629 165.616,170.025 165.187 C 170.422 164.758,170.695 164.356,170.632 164.293 C 170.569 164.229,170.791 163.866,171.125 163.485 L 171.733 162.793 171.238 161.430 C 170.966 160.680,170.674 160.020,170.589 159.963 C 170.505 159.906,170.384 159.680,170.322 159.459 C 170.008 158.349,168.915 155.445,168.778 155.357 C 168.691 155.301,168.284 154.264,167.871 153.053 C 167.459 151.842,167.056 150.806,166.976 150.751 C 166.896 150.696,166.485 149.660,166.063 148.448 C 165.640 147.237,165.228 146.201,165.147 146.145 C 165.016 146.055,163.913 143.106,163.612 142.042 C 163.550 141.822,163.436 141.597,163.361 141.542 C 163.232 141.449,162.267 138.944,162.010 138.038 C 161.948 137.818,161.825 137.589,161.736 137.530 C 161.648 137.471,161.245 136.480,160.841 135.328 C 160.437 134.176,160.041 133.188,159.960 133.133 C 159.878 133.078,159.475 132.042,159.063 130.831 C 158.650 129.620,158.250 128.584,158.172 128.529 C 158.094 128.473,157.700 127.488,157.295 126.339 C 156.891 125.190,156.487 124.199,156.398 124.137 C 156.309 124.075,156.089 123.574,155.909 123.023 C 155.276 121.087,154.715 119.619,154.570 119.520 C 154.489 119.464,154.074 118.383,153.647 117.117 C 153.220 115.851,152.802 114.766,152.718 114.707 C 152.635 114.648,152.236 113.657,151.832 112.505 C 151.428 111.353,151.033 110.365,150.954 110.310 C 150.875 110.255,150.620 109.670,150.388 109.009 C 150.156 108.348,149.963 107.898,149.958 108.008 M182.983 118.982 C 182.983 119.016,183.276 119.309,183.634 119.632 L 184.284 120.220 183.696 119.570 C 183.148 118.963,182.983 118.827,182.983 118.982 M121.922 133.054 C 121.922 133.158,121.600 133.416,121.207 133.627 C 120.814 133.839,120.310 134.288,120.088 134.624 C 119.760 135.121,119.754 135.160,120.053 134.835 C 120.255 134.615,120.768 134.254,121.193 134.034 C 121.957 133.638,122.289 133.233,122.047 132.991 C 121.978 132.922,121.922 132.951,121.922 133.054 M76.026 162.275 C 75.503 162.548,75.075 162.815,75.075 162.870 C 75.075 162.925,75.526 162.741,76.076 162.462 C 76.627 162.183,77.077 161.912,77.077 161.858 C 77.077 161.726,77.095 161.719,76.026 162.275 M72.623 163.978 C 72.210 164.196,71.872 164.419,71.872 164.473 C 71.872 164.563,73.453 163.824,73.657 163.639 C 73.887 163.431,73.286 163.627,72.623 163.978 M68.869 165.866 C 68.373 166.131,68.058 166.348,68.168 166.348 C 68.278 166.348,68.774 166.131,69.269 165.866 C 69.765 165.601,70.080 165.383,69.970 165.383 C 69.860 165.383,69.364 165.601,68.869 165.866 M139.039 180.696 C 138.180 181.209,138.290 181.317,139.309 180.961 C 139.656 180.841,139.940 180.615,139.940 180.461 C 139.940 180.307,139.917 180.189,139.890 180.199 C 139.862 180.209,139.479 180.433,139.039 180.696 M108.661 186.128 C 108.910 186.175,109.270 186.174,109.462 186.124 C 109.653 186.073,109.449 186.034,109.009 186.036 C 108.569 186.039,108.412 186.080,108.661 186.128 " stroke="none" fill="#0b83bd" fill-rule="evenodd"></path><path id="path3" d="M66.266 25.929 C 64.862 27.173,61.411 30.360,59.707 31.987 C 59.127 32.540,58.519 33.044,58.355 33.107 C 58.192 33.169,58.053 33.336,58.046 33.477 C 58.039 33.618,57.639 34.049,57.157 34.434 C 56.675 34.820,56.275 35.193,56.268 35.264 C 56.246 35.504,55.096 36.637,54.875 36.637 C 54.754 36.637,54.655 36.753,54.655 36.896 C 54.655 37.039,54.287 37.512,53.839 37.947 C 52.447 39.297,46.961 45.446,46.690 45.960 C 46.549 46.227,46.362 46.446,46.274 46.446 C 46.186 46.446,45.816 46.862,45.451 47.369 C 45.087 47.877,44.531 48.556,44.216 48.878 C 43.901 49.200,43.644 49.544,43.644 49.642 C 43.644 49.741,43.319 50.166,42.922 50.586 C 42.525 51.007,42.209 51.373,42.219 51.399 C 42.268 51.530,40.940 53.253,40.790 53.253 C 40.695 53.253,40.663 53.328,40.720 53.419 C 40.776 53.510,40.566 53.866,40.253 54.208 C 39.940 54.551,39.723 54.871,39.771 54.919 C 39.819 54.967,39.561 55.328,39.198 55.720 C 38.836 56.112,38.511 56.543,38.478 56.677 C 38.400 56.989,37.186 58.737,36.986 58.826 C 36.902 58.863,36.885 58.975,36.948 59.076 C 37.010 59.177,36.965 59.259,36.849 59.259 C 36.732 59.259,36.637 59.380,36.637 59.529 C 36.637 59.677,36.456 59.961,36.236 60.160 C 36.016 60.359,35.836 60.649,35.836 60.804 C 35.836 60.958,35.752 61.033,35.649 60.970 C 35.547 60.906,35.405 60.948,35.334 61.063 C 35.263 61.177,35.280 61.258,35.371 61.243 C 35.767 61.174,35.846 61.282,35.600 61.555 C 34.940 62.286,34.822 62.480,34.928 62.651 C 34.990 62.752,34.933 62.902,34.801 62.984 C 34.470 63.188,35.132 63.431,36.069 63.449 C 36.473 63.457,36.834 63.538,36.870 63.628 C 36.907 63.719,39.595 64.141,42.843 64.566 C 46.091 64.992,48.794 65.397,48.849 65.465 C 48.904 65.534,51.607 65.938,54.855 66.364 C 58.103 66.789,60.806 67.197,60.861 67.272 C 61.035 67.506,63.063 67.667,63.063 67.446 C 63.063 67.335,63.135 67.288,63.223 67.343 C 63.311 67.397,63.405 67.117,63.432 66.721 C 63.459 66.325,63.527 65.925,63.584 65.833 C 63.641 65.741,63.587 65.666,63.463 65.666 C 63.340 65.666,63.285 65.592,63.341 65.501 C 63.397 65.411,63.494 64.442,63.557 63.349 C 63.619 62.256,63.722 61.110,63.785 60.803 C 63.848 60.495,63.799 60.123,63.677 59.976 C 63.539 59.810,63.492 59.221,63.555 58.432 C 64.181 50.496,64.508 46.761,64.754 44.745 C 65.187 41.199,66.581 31.953,67.176 28.678 C 67.920 24.582,67.890 24.491,66.266 25.929 M168.769 72.533 C 168.769 72.677,168.453 73.100,168.068 73.473 C 167.683 73.847,167.367 74.225,167.367 74.314 C 167.367 74.403,167.007 74.801,166.567 75.199 C 166.126 75.597,165.766 76.016,165.766 76.130 C 165.766 76.244,165.405 76.646,164.965 77.023 C 164.525 77.400,164.164 77.822,164.164 77.960 C 164.164 78.098,163.804 78.501,163.363 78.855 C 162.923 79.209,162.563 79.622,162.563 79.772 C 162.563 79.923,162.202 80.332,161.762 80.681 C 161.321 81.030,160.961 81.439,160.961 81.590 C 160.961 81.741,160.646 82.116,160.260 82.424 C 159.875 82.731,159.560 83.085,159.560 83.210 C 159.560 83.335,159.199 83.762,158.759 84.160 C 158.318 84.558,157.958 84.956,157.958 85.045 C 157.958 85.134,157.643 85.512,157.257 85.886 C 156.872 86.259,156.557 86.638,156.557 86.726 C 156.557 86.815,156.196 87.213,155.756 87.611 C 155.315 88.009,154.955 88.415,154.955 88.512 C 154.955 88.610,154.595 89.015,154.154 89.413 C 153.714 89.811,153.353 90.239,153.353 90.364 C 153.353 90.488,153.038 90.842,152.653 91.150 C 152.267 91.457,151.953 91.818,151.955 91.950 C 151.957 92.083,151.596 92.508,151.152 92.893 C 150.320 93.617,149.882 94.895,150.467 94.895 C 150.612 94.895,150.823 95.053,150.935 95.245 C 151.129 95.579,151.139 95.579,151.145 95.245 C 151.150 94.940,151.209 94.953,151.602 95.345 C 151.849 95.593,152.030 95.863,152.002 95.946 C 151.974 96.029,152.038 96.096,152.143 96.096 C 152.248 96.096,152.676 96.330,153.094 96.617 C 153.512 96.903,154.057 97.216,154.304 97.312 C 154.552 97.409,154.755 97.574,154.755 97.679 C 154.755 97.785,154.934 97.928,155.154 97.998 C 155.374 98.067,155.666 98.232,155.805 98.364 C 156.198 98.740,157.122 99.299,157.348 99.299 C 157.956 99.299,167.027 105.894,173.574 111.097 C 175.170 112.365,178.088 114.757,180.058 116.411 C 182.028 118.066,183.911 119.640,184.243 119.909 L 184.847 120.398 184.707 119.308 C 184.462 117.393,183.372 111.626,183.177 111.211 C 183.073 110.991,182.758 109.730,182.476 108.408 C 182.194 107.087,181.857 105.511,181.728 104.905 C 181.598 104.299,181.437 103.759,181.369 103.704 C 181.300 103.649,180.997 102.568,180.694 101.301 C 180.392 100.035,179.940 98.458,179.690 97.798 C 179.440 97.137,179.034 95.831,178.786 94.895 C 178.539 93.959,178.216 92.968,178.069 92.693 C 177.922 92.417,177.469 91.156,177.062 89.890 C 176.656 88.624,176.254 87.497,176.171 87.387 C 175.997 87.159,174.992 84.413,174.833 83.734 C 174.775 83.486,174.649 83.283,174.551 83.283 C 174.454 83.283,174.388 83.216,174.406 83.133 C 174.423 83.051,174.235 82.533,173.989 81.982 C 173.742 81.431,173.409 80.666,173.247 80.280 C 173.086 79.895,172.865 79.418,172.756 79.221 C 172.648 79.024,172.621 78.762,172.697 78.640 C 172.787 78.494,172.742 78.474,172.569 78.580 C 172.377 78.699,172.339 78.653,172.432 78.411 C 172.502 78.228,172.480 78.078,172.382 78.078 C 172.284 78.078,172.102 77.770,171.977 77.393 C 171.853 77.017,171.622 76.601,171.463 76.470 C 171.305 76.338,171.225 76.151,171.285 76.053 C 171.346 75.956,171.300 75.876,171.183 75.876 C 171.066 75.876,170.984 75.808,171.000 75.726 C 171.054 75.442,170.531 74.274,170.351 74.274 C 170.251 74.274,170.170 74.134,170.170 73.962 C 170.170 73.777,170.076 73.708,169.939 73.793 C 169.803 73.877,169.762 73.848,169.840 73.723 C 170.027 73.420,169.770 72.849,169.517 73.005 C 169.383 73.088,169.348 72.978,169.419 72.704 C 169.506 72.373,169.443 72.272,169.150 72.272 C 168.941 72.272,168.769 72.390,168.769 72.533 M84.434 157.896 C 84.242 157.946,84.084 158.066,84.084 158.161 C 84.084 158.257,83.904 158.301,83.684 158.258 C 83.244 158.174,83.134 158.455,83.534 158.643 C 83.671 158.708,83.536 158.714,83.233 158.656 C 82.930 158.598,82.683 158.640,82.683 158.749 C 82.683 158.915,80.684 159.960,80.367 159.960 C 80.312 159.960,80.031 160.114,79.743 160.303 C 79.455 160.492,79.090 160.665,78.931 160.688 C 78.773 160.711,78.487 160.872,78.295 161.046 C 78.103 161.219,77.841 161.361,77.712 161.361 C 77.583 161.361,77.477 161.479,77.477 161.623 C 77.477 162.002,69.828 165.798,63.363 168.627 C 59.857 170.162,56.070 171.682,49.550 174.169 C 44.776 175.990,45.066 175.732,47.047 176.400 C 47.983 176.716,48.929 177.066,49.149 177.179 C 49.672 177.448,54.024 178.779,54.380 178.779 C 54.531 178.779,54.655 178.859,54.655 178.956 C 54.655 179.054,54.902 179.181,55.205 179.240 C 56.317 179.454,60.573 180.597,60.961 180.787 C 61.401 181.001,64.676 181.814,66.567 182.178 C 67.227 182.306,68.038 182.526,68.368 182.668 C 68.699 182.811,70.455 183.173,72.272 183.475 C 74.089 183.776,75.711 184.090,75.876 184.173 C 76.041 184.257,76.379 184.294,76.627 184.256 C 76.874 184.218,77.077 184.257,77.077 184.343 C 77.077 184.429,77.370 184.521,77.728 184.547 C 78.086 184.573,79.189 184.721,80.180 184.875 C 84.103 185.486,93.489 186.237,93.784 185.963 C 94.043 185.722,95.042 185.738,95.195 185.986 C 95.263 186.096,95.561 186.176,95.858 186.162 L 96.396 186.139 95.796 185.986 C 95.310 185.862,95.281 185.829,95.646 185.809 C 96.064 185.787,96.318 185.385,95.914 185.385 C 95.814 185.385,95.438 184.475,95.079 183.363 C 94.719 182.251,94.322 181.237,94.196 181.111 C 94.069 180.984,93.914 180.701,93.849 180.480 C 93.516 179.338,92.439 176.466,92.312 176.378 C 92.231 176.322,91.834 175.336,91.429 174.187 C 91.025 173.038,90.626 172.047,90.542 171.985 C 90.459 171.923,90.038 170.816,89.606 169.525 C 89.175 168.234,88.754 167.153,88.671 167.123 C 88.588 167.092,88.241 166.261,87.901 165.275 C 87.560 164.290,87.214 163.434,87.131 163.373 C 86.982 163.265,86.039 160.724,85.647 159.377 C 85.538 159.001,85.321 158.566,85.165 158.410 C 85.009 158.254,84.932 158.043,84.995 157.942 C 85.113 157.750,85.021 157.743,84.434 157.896 " stroke="none" fill="#1ea8c8" fill-rule="evenodd"></path><path id="path4" d="M158.354 57.088 C 157.751 57.765,156.897 58.728,156.456 59.226 C 156.016 59.725,155.430 60.372,155.155 60.664 C 154.880 60.956,154.302 61.626,153.871 62.153 C 153.440 62.680,152.899 63.307,152.670 63.547 C 152.177 64.063,150.294 66.247,150.150 66.471 C 150.036 66.649,148.344 68.583,147.447 69.561 C 147.117 69.921,146.396 70.740,145.846 71.381 C 145.295 72.021,144.607 72.796,144.317 73.103 C 144.026 73.409,143.487 74.046,143.119 74.518 C 142.751 74.989,142.223 75.605,141.946 75.887 C 141.668 76.168,140.991 76.929,140.440 77.577 C 139.890 78.226,139.252 78.954,139.022 79.194 C 138.792 79.435,138.252 80.063,137.821 80.590 C 137.390 81.117,136.812 81.791,136.537 82.087 C 135.445 83.264,134.617 84.191,134.272 84.624 L 133.910 85.078 134.927 85.545 C 135.486 85.802,135.900 86.055,135.847 86.108 C 135.795 86.161,136.086 86.379,136.494 86.593 C 136.903 86.808,137.282 87.031,137.337 87.089 C 137.392 87.148,137.663 87.304,137.938 87.437 C 138.213 87.569,138.889 87.949,139.439 88.281 C 139.990 88.612,141.094 89.251,141.892 89.701 C 142.690 90.151,143.343 90.602,143.343 90.705 C 143.343 90.807,143.411 90.871,143.493 90.846 C 143.686 90.790,145.794 91.996,148.207 93.544 C 148.851 93.956,149.512 94.294,149.676 94.294 C 149.839 94.294,149.918 94.384,149.850 94.494 C 149.782 94.605,149.855 94.695,150.013 94.695 C 150.191 94.695,150.300 94.490,150.300 94.157 C 150.300 93.774,150.540 93.412,151.129 92.905 C 151.585 92.513,151.957 92.083,151.955 91.950 C 151.953 91.818,152.267 91.457,152.653 91.150 C 153.038 90.842,153.353 90.488,153.353 90.364 C 153.353 90.239,153.714 89.811,154.154 89.413 C 154.595 89.015,154.955 88.610,154.955 88.512 C 154.955 88.415,155.315 88.009,155.756 87.611 C 156.196 87.213,156.557 86.815,156.557 86.726 C 156.557 86.638,156.872 86.259,157.257 85.886 C 157.643 85.512,157.958 85.134,157.958 85.045 C 157.958 84.956,158.318 84.558,158.759 84.160 C 159.199 83.762,159.560 83.335,159.560 83.210 C 159.560 83.085,159.875 82.731,160.260 82.424 C 160.646 82.116,160.961 81.741,160.961 81.590 C 160.961 81.439,161.321 81.030,161.762 80.681 C 162.202 80.332,162.563 79.923,162.563 79.772 C 162.563 79.622,162.923 79.209,163.363 78.855 C 163.804 78.501,164.164 78.098,164.164 77.960 C 164.164 77.822,164.525 77.400,164.965 77.023 C 165.405 76.646,165.766 76.244,165.766 76.130 C 165.766 76.016,166.126 75.597,166.567 75.199 C 167.007 74.801,167.367 74.403,167.367 74.314 C 167.367 74.225,167.683 73.847,168.068 73.473 C 168.453 73.100,168.769 72.677,168.769 72.533 C 168.769 72.390,168.971 72.271,169.219 72.269 C 169.467 72.268,169.579 72.200,169.468 72.119 C 169.358 72.038,168.833 71.116,168.302 70.070 C 167.394 68.283,166.674 66.977,164.881 63.864 C 164.468 63.148,164.003 62.491,163.847 62.402 C 163.691 62.314,163.564 62.123,163.564 61.978 C 163.564 61.594,161.609 58.659,161.354 58.659 C 161.235 58.659,161.187 58.578,161.248 58.479 C 161.309 58.381,161.224 58.249,161.060 58.185 C 160.895 58.122,160.761 57.931,160.761 57.761 C 160.761 57.590,160.423 57.119,160.010 56.715 C 159.597 56.310,159.386 56.056,159.540 56.149 C 159.731 56.264,159.776 56.244,159.679 56.087 C 159.487 55.777,159.586 55.703,158.354 57.088 M63.510 59.259 C 63.510 59.645,63.551 59.802,63.601 59.610 C 63.652 59.417,63.652 59.102,63.601 58.909 C 63.551 58.716,63.510 58.874,63.510 59.259 M34.732 62.353 C 34.348 62.953,34.034 63.531,34.034 63.637 C 34.034 63.744,33.954 63.861,33.857 63.897 C 33.340 64.092,26.491 77.079,26.304 78.220 C 26.282 78.352,26.127 78.737,25.959 79.074 C 25.790 79.411,25.751 79.626,25.870 79.552 C 26.121 79.397,25.917 79.802,25.494 80.297 C 25.285 80.542,25.281 80.618,25.475 80.632 C 26.647 80.714,30.952 81.370,31.031 81.478 C 31.086 81.553,31.897 81.711,32.833 81.827 C 38.435 82.526,41.554 82.971,41.642 83.084 C 41.697 83.155,44.399 83.560,47.648 83.984 C 50.896 84.408,53.599 84.813,53.654 84.884 C 53.709 84.955,55.691 85.262,58.058 85.567 C 60.425 85.872,62.567 86.169,62.818 86.227 C 63.210 86.318,63.273 86.252,63.275 85.759 C 63.277 85.443,63.316 81.086,63.363 76.076 C 63.431 68.767,63.398 67.032,63.198 67.298 C 62.947 67.629,61.108 67.610,60.861 67.273 C 60.806 67.198,58.103 66.789,54.855 66.364 C 51.607 65.938,48.904 65.534,48.849 65.465 C 48.794 65.397,46.091 64.992,42.843 64.566 C 39.595 64.141,36.907 63.719,36.870 63.628 C 36.834 63.538,36.473 63.457,36.069 63.449 C 35.132 63.431,34.470 63.188,34.801 62.984 C 34.933 62.902,34.989 62.751,34.925 62.647 C 34.862 62.544,34.928 62.328,35.072 62.168 C 35.734 61.433,35.842 61.261,35.641 61.261 C 35.525 61.261,35.116 61.752,34.732 62.353 M63.510 63.664 C 63.510 64.049,63.551 64.207,63.601 64.014 C 63.652 63.821,63.652 63.506,63.601 63.313 C 63.551 63.121,63.510 63.278,63.510 63.664 M63.440 65.021 C 63.374 65.419,63.403 65.606,63.514 65.495 C 63.615 65.394,63.664 65.098,63.623 64.838 C 63.560 64.437,63.532 64.465,63.440 65.021 M169.669 73.274 C 169.555 73.459,169.585 73.487,169.773 73.371 C 169.967 73.251,170.003 73.300,169.906 73.551 C 169.834 73.740,169.857 73.844,169.957 73.782 C 170.058 73.720,170.181 73.828,170.232 74.022 C 170.303 74.293,170.329 74.302,170.347 74.062 C 170.385 73.560,169.866 72.956,169.669 73.274 M151.151 95.162 C 151.151 95.394,151.926 95.988,152.057 95.857 C 152.094 95.821,151.905 95.596,151.637 95.358 C 151.370 95.120,151.151 95.032,151.151 95.162 M100.425 148.910 C 100.349 149.032,100.172 149.087,100.031 149.033 C 99.890 148.979,99.609 149.118,99.406 149.342 C 99.203 149.566,98.877 149.750,98.682 149.750 C 98.332 149.750,97.917 149.980,95.836 151.323 C 95.264 151.694,94.209 152.314,93.493 152.703 C 92.778 153.092,92.057 153.514,91.892 153.641 C 91.727 153.767,91.321 154.002,90.991 154.162 C 90.661 154.323,90.345 154.499,90.290 154.554 C 90.235 154.609,89.875 154.827,89.489 155.037 C 87.342 156.210,86.898 156.503,87.036 156.654 C 87.119 156.746,87.077 156.758,86.943 156.681 C 86.662 156.519,85.485 157.070,85.485 157.362 C 85.485 157.470,85.356 157.558,85.197 157.558 C 84.884 157.558,84.932 158.339,85.258 158.544 C 85.359 158.607,85.532 158.974,85.643 159.359 C 86.032 160.705,86.981 163.264,87.131 163.373 C 87.214 163.434,87.560 164.290,87.901 165.275 C 88.241 166.261,88.588 167.092,88.671 167.123 C 88.754 167.153,89.175 168.234,89.606 169.525 C 90.038 170.816,90.459 171.923,90.542 171.985 C 90.626 172.047,91.025 173.038,91.429 174.187 C 91.834 175.336,92.231 176.322,92.312 176.378 C 92.441 176.467,93.546 179.422,93.846 180.480 C 93.908 180.701,94.041 180.935,94.141 181.002 C 94.241 181.068,94.636 182.056,95.019 183.198 C 95.402 184.340,95.821 185.339,95.950 185.419 C 96.365 185.675,95.936 185.839,94.911 185.816 C 93.779 185.790,93.392 186.056,94.358 186.195 C 95.319 186.333,105.790 186.273,107.508 186.119 C 108.333 186.045,109.685 185.935,110.511 185.874 C 111.336 185.812,112.282 185.715,112.613 185.656 C 112.943 185.598,113.438 185.510,113.714 185.460 C 113.989 185.411,114.370 185.345,114.560 185.315 C 114.751 185.285,114.958 185.209,115.020 185.147 C 115.153 185.014,113.982 181.553,113.750 181.392 C 113.662 181.331,113.399 180.696,113.165 179.980 C 112.485 177.901,112.023 176.685,111.869 176.569 C 111.790 176.510,111.395 175.519,110.991 174.367 C 110.588 173.215,110.193 172.227,110.115 172.172 C 110.037 172.117,109.628 171.081,109.206 169.870 C 108.783 168.659,108.374 167.623,108.296 167.568 C 108.218 167.513,107.834 166.530,107.441 165.384 C 107.049 164.238,106.648 163.247,106.550 163.182 C 106.452 163.116,106.320 162.883,106.258 162.663 C 105.953 161.585,104.853 158.649,104.720 158.560 C 104.637 158.504,104.217 157.422,103.786 156.156 C 103.355 154.890,102.937 153.804,102.856 153.744 C 102.775 153.683,102.430 152.827,102.089 151.842 C 101.749 150.856,101.387 150.020,101.286 149.983 C 101.184 149.947,101.101 149.806,101.101 149.671 C 101.101 149.252,100.577 148.663,100.425 148.910 M81.854 159.157 L 81.381 159.555 82.032 159.242 C 82.678 158.932,82.847 158.759,82.505 158.759 C 82.407 158.759,82.114 158.938,81.854 159.157 " stroke="none" fill="#1c9cc4" fill-rule="evenodd"></path><path id="path5" d="M82.282 16.577 C 82.282 16.702,82.148 16.753,81.983 16.690 C 81.819 16.626,81.332 16.758,80.902 16.983 C 80.472 17.207,80.058 17.329,79.983 17.254 C 79.908 17.179,79.742 17.261,79.613 17.436 C 79.485 17.611,78.906 17.911,78.327 18.103 C 77.644 18.329,77.321 18.534,77.408 18.685 C 77.481 18.814,77.475 18.859,77.392 18.785 C 77.195 18.608,76.076 19.004,76.076 19.251 C 76.076 19.356,75.992 19.391,75.888 19.327 C 75.785 19.263,75.607 19.370,75.494 19.565 C 75.380 19.760,75.285 19.851,75.281 19.766 C 75.268 19.435,70.776 22.138,70.427 22.686 C 70.344 22.816,70.275 22.855,70.273 22.773 C 70.272 22.690,70.113 22.764,69.920 22.936 C 69.727 23.109,69.182 23.518,68.708 23.846 C 68.105 24.264,67.878 24.545,67.952 24.784 C 68.010 24.972,67.920 25.891,67.753 26.827 C 67.467 28.428,67.218 29.855,66.955 31.401 L 66.841 32.071 67.505 31.377 C 67.870 30.996,68.574 30.206,69.069 29.623 C 69.565 29.039,70.247 28.268,70.585 27.910 C 70.923 27.552,71.451 26.929,71.758 26.526 C 72.066 26.123,72.555 25.543,72.845 25.236 C 73.579 24.462,75.355 22.429,75.871 21.774 C 76.305 21.222,76.865 20.605,78.327 19.072 C 79.241 18.112,80.654 17.217,81.255 17.217 C 81.477 17.217,81.715 17.126,81.784 17.014 C 81.853 16.902,81.987 16.858,82.082 16.917 C 82.288 17.044,82.575 16.643,82.402 16.470 C 82.336 16.404,82.282 16.452,82.282 16.577 M155.934 100.551 C 155.699 100.999,155.700 100.999,156.127 100.620 C 156.604 100.196,156.648 100.100,156.363 100.100 C 156.257 100.100,156.064 100.303,155.934 100.551 M148.738 108.458 L 148.048 109.209 148.799 108.519 C 149.498 107.877,149.642 107.708,149.489 107.708 C 149.455 107.708,149.117 108.046,148.738 108.458 M179.980 116.820 C 179.980 117.163,181.050 119.920,181.184 119.920 C 181.267 119.920,181.382 120.123,181.440 120.370 C 181.643 121.234,182.823 124.425,182.976 124.525 C 183.061 124.580,183.468 125.616,183.880 126.827 C 184.292 128.038,184.697 129.074,184.778 129.129 C 185.153 129.381,185.604 131.637,185.379 132.132 C 185.256 132.401,185.258 134.334,185.381 134.334 C 185.773 134.334,185.793 123.076,185.405 121.271 C 185.177 120.213,184.785 119.687,184.785 120.439 C 184.785 120.721,183.247 119.648,182.482 118.832 C 182.015 118.334,179.980 116.697,179.980 116.820 M185.131 135.456 C 185.051 135.537,184.985 135.740,184.985 135.909 C 184.985 136.135,185.044 136.157,185.208 135.993 C 185.330 135.871,185.396 135.667,185.354 135.541 C 185.311 135.414,185.211 135.376,185.131 135.456 M184.900 136.670 C 184.829 136.854,184.845 137.077,184.935 137.167 C 185.025 137.257,185.117 137.107,185.140 136.833 C 185.187 136.259,185.084 136.189,184.900 136.670 M30.430 166.536 C 30.430 166.786,31.145 167.387,31.281 167.251 C 31.345 167.187,31.225 166.961,31.014 166.750 C 30.598 166.333,30.430 166.272,30.430 166.536 M32.726 168.561 C 33.039 168.888,33.371 169.108,33.464 169.050 C 33.557 168.992,33.634 169.041,33.634 169.157 C 33.634 169.274,33.729 169.369,33.845 169.369 C 33.961 169.369,34.313 169.650,34.627 169.994 C 34.940 170.337,35.290 170.560,35.404 170.490 C 35.518 170.420,35.684 170.480,35.773 170.624 C 35.965 170.934,38.051 172.358,38.997 172.825 C 39.360 173.004,39.984 173.353,40.384 173.601 C 40.833 173.878,41.048 173.940,40.944 173.762 C 40.852 173.603,40.994 173.668,41.259 173.906 C 41.800 174.390,44.154 175.399,44.331 175.222 C 44.393 175.160,44.444 175.203,44.444 175.319 C 44.444 175.579,45.343 175.506,46.146 175.181 C 46.476 175.047,47.467 174.671,48.348 174.346 C 49.229 174.020,50.316 173.578,50.764 173.363 C 51.212 173.149,51.679 172.973,51.803 172.973 C 53.080 172.973,51.642 172.563,49.392 172.286 C 47.828 172.094,46.503 171.871,46.447 171.791 C 46.392 171.711,45.040 171.482,43.443 171.283 C 37.628 170.556,35.592 170.224,35.439 169.975 C 35.317 169.778,35.260 169.783,35.175 169.997 C 35.095 170.198,35.062 170.184,35.051 169.944 C 35.042 169.765,34.771 169.509,34.449 169.375 C 34.126 169.242,33.810 168.996,33.746 168.830 C 33.674 168.640,33.502 168.576,33.288 168.658 C 33.099 168.731,33.009 168.726,33.087 168.648 C 33.286 168.449,32.849 167.968,32.471 167.968 C 32.244 167.968,32.314 168.132,32.726 168.561 " stroke="none" fill="#046cb4" fill-rule="evenodd"></path><path id="path6" d="M141.959 35.586 C 141.832 35.888,141.149 36.767,140.440 37.538 C 139.732 38.308,139.150 38.992,139.146 39.056 C 139.142 39.121,138.756 39.584,138.288 40.085 C 137.820 40.586,137.077 41.417,136.637 41.930 C 136.196 42.443,135.521 43.213,135.135 43.641 C 134.750 44.068,134.029 44.888,133.534 45.462 C 133.038 46.036,132.339 46.818,131.979 47.200 C 131.620 47.581,131.259 48.008,131.178 48.147 C 131.097 48.286,130.445 49.052,129.730 49.850 C 129.014 50.647,128.362 51.414,128.281 51.553 C 128.200 51.692,127.840 52.118,127.480 52.500 C 127.121 52.881,126.421 53.660,125.926 54.229 C 125.430 54.799,124.710 55.616,124.324 56.046 C 123.939 56.475,123.263 57.244,122.823 57.755 C 121.258 59.569,120.546 60.372,119.731 61.242 C 119.276 61.727,118.840 62.237,118.761 62.376 C 118.683 62.514,118.303 62.974,117.918 63.397 C 117.533 63.821,116.917 64.527,116.550 64.966 C 115.666 66.024,114.607 67.248,113.564 68.417 C 113.097 68.941,112.401 69.730,112.018 70.170 C 111.635 70.611,110.914 71.396,110.416 71.914 C 109.563 72.802,109.205 73.735,109.760 73.624 C 109.897 73.596,109.983 73.698,109.951 73.851 C 109.907 74.058,110.043 74.097,110.493 74.008 C 110.968 73.913,111.070 73.949,110.981 74.181 C 110.919 74.342,110.960 74.474,111.073 74.474 C 111.186 74.474,111.323 74.362,111.379 74.224 C 111.438 74.079,111.487 74.126,111.496 74.336 C 111.504 74.535,111.602 74.643,111.712 74.575 C 111.822 74.507,111.912 74.543,111.912 74.657 C 111.912 74.770,112.050 74.809,112.220 74.744 C 112.389 74.679,112.682 74.764,112.870 74.933 C 113.200 75.228,115.601 76.363,115.630 76.237 C 115.638 76.204,115.802 76.334,115.995 76.527 C 116.187 76.719,116.457 76.877,116.593 76.877 C 116.730 76.877,117.215 77.057,117.670 77.277 C 118.126 77.497,118.627 77.678,118.782 77.678 C 118.938 77.678,119.294 77.858,119.574 78.078 C 119.854 78.298,120.137 78.478,120.203 78.478 C 120.544 78.478,129.947 83.101,130.480 83.531 C 130.618 83.642,130.732 83.654,130.734 83.558 C 130.735 83.462,130.803 83.484,130.884 83.607 C 130.965 83.730,131.572 84.082,132.232 84.391 C 132.893 84.699,133.478 85.015,133.534 85.092 C 133.728 85.366,135.689 86.266,135.815 86.140 C 135.885 86.070,135.486 85.802,134.927 85.545 L 133.910 85.078 134.272 84.624 C 134.617 84.191,135.445 83.264,136.537 82.087 C 136.812 81.791,137.390 81.117,137.821 80.590 C 138.252 80.063,138.792 79.435,139.022 79.194 C 139.252 78.954,139.890 78.226,140.440 77.577 C 140.991 76.929,141.668 76.168,141.946 75.887 C 142.223 75.605,142.751 74.989,143.119 74.518 C 143.487 74.046,144.026 73.409,144.317 73.103 C 144.607 72.796,145.295 72.021,145.846 71.381 C 146.396 70.740,147.117 69.921,147.447 69.561 C 148.344 68.583,150.036 66.649,150.150 66.471 C 150.294 66.247,152.177 64.063,152.670 63.547 C 152.899 63.307,153.440 62.680,153.871 62.153 C 154.302 61.626,154.880 60.959,155.155 60.672 C 155.430 60.384,156.106 59.628,156.657 58.992 C 158.240 57.163,159.592 55.737,159.523 55.967 C 159.488 56.083,159.703 56.406,160.002 56.683 C 160.300 56.961,160.649 57.451,160.776 57.773 C 160.904 58.095,161.050 58.248,161.100 58.114 C 161.150 57.979,160.914 57.484,160.575 57.013 C 160.236 56.542,159.624 55.661,159.216 55.055 C 158.807 54.449,158.422 53.909,158.359 53.854 C 158.297 53.799,157.897 53.258,157.471 52.653 C 157.044 52.047,156.619 51.522,156.526 51.485 C 156.433 51.448,156.356 51.328,156.356 51.218 C 156.356 51.014,155.292 49.629,154.305 48.549 C 154.003 48.219,153.755 47.894,153.755 47.828 C 153.754 47.762,153.487 47.402,153.161 47.027 C 152.835 46.653,152.021 45.716,151.351 44.945 C 148.380 41.525,148.384 41.529,145.683 38.664 C 145.035 37.976,144.422 37.489,144.301 37.565 C 144.170 37.645,144.140 37.607,144.225 37.468 C 144.311 37.329,144.183 37.164,143.906 37.056 C 143.652 36.957,143.128 36.538,142.743 36.125 C 142.357 35.713,142.154 35.439,142.290 35.516 C 142.457 35.610,142.499 35.554,142.419 35.346 C 142.259 34.930,142.228 34.946,141.959 35.586 M25.916 78.697 C 25.740 79.038,25.643 79.364,25.701 79.422 C 25.759 79.480,25.671 79.662,25.506 79.828 C 25.341 79.993,25.154 80.388,25.090 80.705 C 25.027 81.022,24.891 81.281,24.788 81.281 C 24.685 81.281,24.657 81.371,24.725 81.481 C 24.793 81.592,24.765 81.682,24.663 81.682 C 24.494 81.682,23.223 84.770,23.223 85.179 C 23.223 85.275,23.104 85.496,22.958 85.670 C 22.813 85.844,22.571 86.391,22.422 86.887 C 22.272 87.382,22.054 87.914,21.936 88.069 C 21.818 88.223,21.740 88.404,21.763 88.469 C 21.844 88.705,21.205 90.636,20.922 91.010 C 20.763 91.220,20.630 91.538,20.627 91.718 C 20.623 91.897,20.181 93.384,19.643 95.021 C 19.106 96.658,18.500 98.651,18.298 99.449 C 18.095 100.248,17.854 100.901,17.762 100.901 C 17.669 100.901,17.640 100.976,17.697 101.067 C 17.753 101.159,17.665 101.722,17.500 102.318 C 17.335 102.915,17.177 103.777,17.149 104.235 C 17.121 104.692,16.968 105.227,16.808 105.424 C 16.552 105.739,16.553 105.764,16.817 105.629 C 16.982 105.545,16.952 105.611,16.750 105.775 C 16.070 106.330,17.073 106.618,21.722 107.200 C 24.144 107.503,26.171 107.814,26.226 107.891 C 26.312 108.011,30.138 108.552,36.637 109.364 C 37.573 109.480,38.383 109.638,38.438 109.713 C 38.493 109.789,39.665 109.996,41.041 110.173 C 48.839 111.179,50.360 111.395,50.450 111.507 C 50.541 111.619,55.458 112.325,60.511 112.952 C 61.584 113.085,62.462 113.254,62.462 113.328 C 62.462 113.402,63.026 113.524,63.714 113.600 C 64.402 113.676,65.177 113.790,65.437 113.853 C 65.847 113.953,65.884 113.919,65.719 113.591 C 65.614 113.383,65.566 112.866,65.612 112.441 C 65.669 111.922,65.626 111.713,65.481 111.802 C 65.189 111.983,65.207 111.650,65.506 111.351 C 65.657 111.199,65.668 111.111,65.533 111.111 C 65.415 111.111,65.363 110.891,65.415 110.618 C 65.495 110.199,65.336 108.331,64.964 105.305 C 64.916 104.920,64.830 104.019,64.773 103.303 C 64.656 101.853,64.277 97.633,64.151 96.396 C 64.029 95.184,63.700 89.936,63.552 86.825 C 63.423 84.098,63.248 83.254,63.233 85.280 C 63.225 86.240,63.191 86.312,62.793 86.221 C 62.556 86.166,60.425 85.872,58.058 85.567 C 55.691 85.262,53.709 84.955,53.654 84.884 C 53.599 84.813,50.896 84.408,47.648 83.984 C 44.399 83.560,41.697 83.155,41.642 83.084 C 41.554 82.971,38.435 82.526,32.833 81.827 C 31.897 81.711,31.086 81.553,31.031 81.478 C 30.952 81.370,26.647 80.714,25.475 80.632 C 25.293 80.619,25.310 80.519,25.533 80.271 C 25.704 80.083,25.889 79.679,25.944 79.373 C 26.000 79.067,26.134 78.651,26.243 78.448 C 26.352 78.244,26.395 78.078,26.339 78.078 C 26.282 78.078,26.092 78.357,25.916 78.697 M63.329 79.379 C 63.330 80.150,63.366 80.441,63.409 80.026 C 63.453 79.610,63.452 78.980,63.408 78.624 C 63.364 78.269,63.328 78.609,63.329 79.379 M122.061 133.326 C 122.015 133.495,121.626 133.814,121.198 134.034 C 120.771 134.254,120.256 134.615,120.055 134.835 C 119.854 135.055,119.756 135.107,119.838 134.951 C 119.933 134.767,119.799 134.803,119.459 135.051 C 119.169 135.262,118.929 135.503,118.925 135.586 C 118.922 135.668,118.788 135.736,118.629 135.736 C 118.469 135.736,118.266 135.855,118.178 136.000 C 118.090 136.145,117.568 136.567,117.017 136.937 C 116.466 137.307,115.946 137.726,115.859 137.868 C 115.773 138.009,115.412 138.264,115.056 138.432 C 114.701 138.601,114.050 139.053,113.611 139.436 C 113.172 139.819,112.753 140.134,112.681 140.136 C 112.608 140.138,112.090 140.503,111.529 140.946 C 110.969 141.389,110.508 141.681,110.504 141.596 C 110.501 141.511,110.407 141.599,110.294 141.792 C 110.182 141.984,109.999 142.142,109.887 142.142 C 109.711 142.142,108.400 143.033,108.108 143.350 C 107.900 143.576,100.333 148.504,100.048 148.599 C 99.928 148.639,99.898 148.784,99.982 148.920 C 100.099 149.109,100.203 149.113,100.413 148.938 C 100.634 148.755,100.742 148.824,100.942 149.279 C 101.080 149.593,101.255 149.895,101.330 149.951 C 101.406 150.007,101.747 150.858,102.088 151.843 C 102.429 152.828,102.775 153.683,102.856 153.744 C 102.937 153.804,103.355 154.890,103.786 156.156 C 104.217 157.422,104.637 158.504,104.720 158.560 C 104.853 158.649,105.953 161.585,106.258 162.663 C 106.320 162.883,106.452 163.116,106.550 163.182 C 106.648 163.247,107.049 164.238,107.441 165.384 C 107.834 166.530,108.218 167.513,108.296 167.568 C 108.374 167.623,108.783 168.659,109.206 169.870 C 109.628 171.081,110.037 172.117,110.115 172.172 C 110.193 172.227,110.588 173.215,110.991 174.367 C 111.395 175.519,111.790 176.510,111.869 176.569 C 112.023 176.685,112.485 177.901,113.165 179.980 C 113.399 180.696,113.662 181.331,113.750 181.392 C 114.310 181.781,115.251 185.617,114.702 185.278 C 114.601 185.215,114.359 185.256,114.166 185.368 C 113.880 185.535,113.955 185.575,114.565 185.579 C 115.033 185.583,115.316 185.492,115.318 185.335 C 115.321 185.158,115.365 185.151,115.469 185.310 C 115.577 185.475,116.172 185.465,117.718 185.272 C 118.874 185.128,120.315 184.949,120.921 184.876 C 121.527 184.803,122.427 184.658,122.923 184.554 C 123.418 184.450,124.995 184.147,126.426 183.881 C 128.930 183.414,130.805 182.999,134.234 182.153 C 135.115 181.936,136.016 181.727,136.236 181.689 C 136.456 181.650,136.907 181.513,137.237 181.382 C 137.568 181.252,138.005 181.112,138.209 181.071 C 138.413 181.030,138.886 180.815,139.260 180.595 C 139.634 180.374,139.940 180.281,139.940 180.387 C 139.940 180.494,140.035 180.581,140.152 180.581 C 140.269 180.581,140.306 180.487,140.236 180.374 C 140.156 180.243,140.301 180.202,140.629 180.261 C 140.924 180.315,141.099 180.274,141.033 180.168 C 140.970 180.064,141.051 179.980,141.215 179.980 C 141.457 179.980,141.422 179.752,141.026 178.741 C 140.759 178.059,140.541 177.391,140.541 177.256 C 140.541 177.121,140.452 176.980,140.343 176.944 C 140.234 176.907,139.813 175.931,139.406 174.775 C 138.999 173.619,138.608 172.628,138.537 172.573 C 138.467 172.518,138.063 171.481,137.641 170.270 C 137.219 169.059,136.810 168.023,136.732 167.968 C 136.653 167.913,136.259 166.925,135.856 165.773 C 135.452 164.621,135.057 163.630,134.978 163.571 C 134.824 163.455,134.361 162.239,133.682 160.160 C 133.448 159.444,133.192 158.814,133.114 158.759 C 132.979 158.664,132.309 156.931,131.920 155.670 C 131.820 155.347,131.663 155.032,131.570 154.969 C 131.478 154.906,131.056 153.864,130.634 152.653 C 130.212 151.441,129.803 150.405,129.724 150.350 C 129.646 150.295,129.244 149.259,128.832 148.048 C 128.420 146.837,128.019 145.801,127.940 145.746 C 127.810 145.655,126.654 142.624,126.375 141.642 C 126.313 141.421,126.189 141.193,126.100 141.134 C 126.012 141.074,125.609 140.083,125.206 138.931 C 124.802 137.779,124.415 136.792,124.347 136.737 C 124.278 136.682,124.098 136.276,123.947 135.836 C 123.098 133.370,122.922 133.019,122.536 133.019 C 122.322 133.019,122.108 133.157,122.061 133.326 M98.999 149.290 C 98.617 149.497,98.497 149.649,98.670 149.706 C 98.819 149.756,99.131 149.606,99.365 149.373 C 99.868 148.870,99.802 148.855,98.999 149.290 M104.657 186.328 C 104.906 186.376,105.266 186.374,105.458 186.324 C 105.649 186.274,105.445 186.234,105.005 186.237 C 104.565 186.239,104.408 186.280,104.657 186.328 M106.156 186.324 C 106.349 186.375,106.664 186.375,106.857 186.324 C 107.050 186.274,106.892 186.233,106.507 186.233 C 106.121 186.233,105.963 186.274,106.156 186.324 " stroke="none" fill="#1496c4" fill-rule="evenodd"></path><path id="path7" d="M98.248 13.757 C 100.120 13.853,100.125 13.838,97.385 16.617 C 97.005 17.002,96.694 17.399,96.695 17.498 C 96.696 17.598,96.359 18.024,95.946 18.445 C 95.533 18.866,94.860 19.596,94.451 20.066 C 92.709 22.068,92.083 22.772,91.302 23.604 C 90.848 24.089,90.412 24.595,90.333 24.729 C 90.254 24.862,89.653 25.577,88.996 26.317 C 88.339 27.057,87.689 27.822,87.553 28.017 C 87.417 28.211,86.983 28.721,86.589 29.150 C 86.196 29.579,85.561 30.290,85.178 30.731 C 84.796 31.171,84.100 31.964,83.633 32.492 C 83.165 33.020,82.422 33.862,81.982 34.364 C 81.542 34.865,80.857 35.610,80.461 36.019 C 80.065 36.427,79.660 36.903,79.560 37.076 C 79.376 37.395,77.660 39.371,76.130 41.026 C 75.663 41.530,75.281 42.005,75.279 42.083 C 75.277 42.160,74.867 42.656,74.367 43.184 C 73.868 43.712,73.147 44.505,72.765 44.945 C 72.383 45.385,71.688 46.174,71.220 46.698 C 70.237 47.801,69.185 49.014,68.235 50.142 C 67.868 50.579,67.432 51.081,67.267 51.258 C 67.102 51.435,66.697 51.892,66.366 52.272 C 66.036 52.652,65.428 53.344,65.015 53.809 L 64.264 54.656 64.233 53.604 C 64.187 52.080,63.912 55.619,63.885 58.085 C 63.863 60.047,64.285 60.760,65.028 60.017 C 65.139 59.906,65.331 59.954,65.515 60.138 C 65.682 60.305,65.872 60.388,65.937 60.322 C 66.003 60.257,66.190 60.314,66.353 60.449 C 66.516 60.584,66.753 60.631,66.880 60.552 C 67.008 60.474,67.190 60.533,67.287 60.685 C 67.417 60.892,67.462 60.897,67.464 60.706 C 67.467 60.513,67.580 60.525,67.929 60.754 C 68.183 60.920,68.656 61.090,68.980 61.132 C 69.304 61.174,69.705 61.260,69.870 61.323 C 70.035 61.386,70.531 61.481,70.971 61.534 C 71.411 61.587,72.087 61.726,72.472 61.842 C 73.207 62.063,73.605 62.057,73.528 61.824 C 73.502 61.748,73.840 61.379,74.278 61.004 C 74.717 60.629,75.075 60.235,75.075 60.128 C 75.075 60.022,75.345 59.676,75.676 59.359 C 76.006 59.043,76.276 58.710,76.276 58.621 C 76.276 58.531,76.637 58.132,77.077 57.734 C 77.518 57.336,77.878 56.917,77.878 56.803 C 77.878 56.688,78.238 56.287,78.679 55.910 C 79.119 55.533,79.479 55.111,79.479 54.973 C 79.479 54.835,79.840 54.432,80.280 54.078 C 80.721 53.724,81.081 53.319,81.081 53.177 C 81.081 53.036,81.441 52.630,81.882 52.276 C 82.322 51.922,82.683 51.509,82.683 51.359 C 82.683 51.208,83.043 50.799,83.483 50.450 C 83.924 50.102,84.284 49.692,84.284 49.541 C 84.284 49.390,84.600 49.015,84.985 48.707 C 85.370 48.400,85.686 48.046,85.686 47.921 C 85.686 47.796,86.046 47.369,86.486 46.971 C 86.927 46.573,87.287 46.175,87.287 46.086 C 87.287 45.997,87.603 45.619,87.988 45.245 C 88.373 44.872,88.689 44.493,88.689 44.405 C 88.689 44.316,89.049 43.918,89.489 43.520 C 89.930 43.122,90.290 42.703,90.290 42.589 C 90.290 42.474,90.651 42.072,91.091 41.695 C 91.532 41.318,91.892 40.897,91.892 40.759 C 91.892 40.620,92.252 40.218,92.693 39.864 C 93.133 39.510,93.493 39.094,93.493 38.940 C 93.493 38.785,93.809 38.419,94.194 38.125 C 94.580 37.831,94.895 37.473,94.895 37.329 C 94.895 37.186,95.255 36.760,95.696 36.383 C 96.136 36.006,96.496 35.600,96.496 35.482 C 96.496 35.363,96.857 34.958,97.297 34.581 C 97.738 34.204,98.098 33.802,98.098 33.688 C 98.098 33.574,98.458 33.154,98.899 32.757 C 99.339 32.359,99.700 31.960,99.700 31.872 C 99.700 31.783,100.015 31.405,100.400 31.031 C 100.786 30.658,101.101 30.277,101.101 30.185 C 101.101 30.093,101.416 29.741,101.802 29.403 C 102.187 29.064,102.503 28.677,102.503 28.541 C 102.503 28.406,102.863 28.006,103.303 27.652 C 103.744 27.298,104.104 26.885,104.104 26.734 C 104.104 26.583,104.464 26.175,104.905 25.826 C 105.345 25.477,105.706 25.068,105.706 24.918 C 105.706 24.767,106.066 24.354,106.507 24.000 C 106.947 23.646,107.307 23.243,107.307 23.105 C 107.307 22.967,107.668 22.546,108.108 22.169 C 108.549 21.792,108.909 21.390,108.909 21.275 C 108.909 21.161,109.258 20.752,109.686 20.366 C 110.113 19.980,110.496 19.573,110.536 19.463 C 110.702 19.011,113.367 16.226,113.534 16.329 C 113.633 16.390,113.714 16.347,113.714 16.233 C 113.714 15.951,112.550 15.369,112.298 15.525 C 112.186 15.594,111.961 15.539,111.798 15.404 C 111.635 15.269,111.445 15.215,111.375 15.285 C 111.305 15.355,111.147 15.328,111.023 15.225 C 110.899 15.122,110.260 14.950,109.603 14.844 C 108.946 14.737,108.161 14.587,107.858 14.511 C 107.550 14.433,107.307 14.454,107.307 14.558 C 107.307 14.661,107.038 14.706,106.709 14.658 C 106.380 14.609,106.154 14.499,106.207 14.413 C 106.260 14.327,106.165 14.203,105.994 14.137 C 105.824 14.072,105.730 14.092,105.786 14.182 C 105.960 14.465,104.357 14.306,103.971 14.003 C 103.627 13.732,103.623 13.739,103.904 14.102 C 104.081 14.332,104.102 14.430,103.955 14.341 C 103.536 14.090,102.841 13.963,102.052 13.994 C 101.639 14.010,101.301 13.942,101.301 13.842 C 101.301 13.742,100.288 13.665,99.049 13.672 C 97.496 13.679,97.248 13.706,98.248 13.757 M74.675 62.432 C 74.675 62.512,74.855 62.591,75.075 62.608 C 75.295 62.624,75.475 62.572,75.475 62.493 C 75.475 62.413,75.295 62.334,75.075 62.317 C 74.855 62.301,74.675 62.352,74.675 62.432 M157.157 99.712 C 157.157 99.828,157.068 99.868,156.959 99.801 C 156.846 99.731,156.812 99.811,156.881 99.990 C 156.952 100.176,156.891 100.302,156.728 100.304 C 156.376 100.308,155.704 101.027,155.276 101.858 C 155.090 102.220,154.862 102.469,154.769 102.411 C 154.588 102.299,154.189 102.689,154.188 102.978 C 154.187 103.075,153.932 103.322,153.620 103.527 C 153.308 103.733,153.107 103.902,153.173 103.903 C 153.238 103.903,152.602 104.602,151.759 105.455 C 150.915 106.309,150.166 107.165,150.094 107.357 C 150.022 107.550,149.860 107.708,149.735 107.708 C 149.609 107.708,149.557 107.838,149.618 107.998 C 149.686 108.176,149.633 108.251,149.480 108.192 C 149.182 108.078,148.240 109.018,148.494 109.176 C 148.591 109.235,148.985 108.996,149.370 108.643 L 150.071 108.001 150.436 109.106 C 150.637 109.713,150.869 110.255,150.950 110.310 C 151.032 110.365,151.428 111.353,151.832 112.505 C 152.236 113.657,152.635 114.648,152.718 114.707 C 152.802 114.766,153.220 115.851,153.647 117.117 C 154.074 118.383,154.489 119.464,154.570 119.520 C 154.715 119.619,155.276 121.087,155.909 123.023 C 156.089 123.574,156.309 124.075,156.398 124.137 C 156.487 124.199,156.891 125.190,157.295 126.339 C 157.700 127.488,158.094 128.473,158.172 128.529 C 158.250 128.584,158.650 129.620,159.063 130.831 C 159.475 132.042,159.878 133.078,159.960 133.133 C 160.041 133.188,160.437 134.176,160.841 135.328 C 161.245 136.480,161.648 137.471,161.736 137.530 C 161.825 137.589,161.948 137.818,162.010 138.038 C 162.267 138.944,163.232 141.449,163.361 141.542 C 163.436 141.597,163.550 141.822,163.612 142.042 C 163.913 143.106,165.016 146.055,165.147 146.145 C 165.228 146.201,165.640 147.237,166.063 148.448 C 166.485 149.660,166.896 150.696,166.976 150.751 C 167.056 150.806,167.459 151.842,167.871 153.053 C 168.284 154.264,168.691 155.301,168.778 155.357 C 168.937 155.459,170.130 158.681,170.316 159.510 C 170.372 159.757,170.489 159.960,170.578 159.960 C 170.666 159.960,170.891 160.433,171.078 161.011 C 171.264 161.589,171.555 162.287,171.723 162.563 C 171.892 162.838,171.963 163.002,171.882 162.927 C 171.691 162.752,170.472 164.133,170.656 164.316 C 170.789 164.449,171.434 163.801,173.020 161.939 C 174.723 159.939,175.338 159.145,175.407 158.859 C 175.433 158.749,175.631 158.516,175.846 158.341 C 176.062 158.167,176.256 157.807,176.278 157.541 C 176.302 157.253,176.438 157.066,176.615 157.079 C 176.822 157.095,176.890 156.945,176.841 156.579 C 176.784 156.151,176.802 156.126,176.939 156.442 C 177.143 156.910,177.447 156.370,177.257 155.876 C 177.198 155.722,177.260 155.528,177.395 155.445 C 177.562 155.342,177.588 155.377,177.477 155.556 C 177.370 155.729,177.394 155.769,177.547 155.675 C 177.674 155.596,177.778 155.374,177.778 155.182 C 177.778 154.989,177.918 154.656,178.089 154.443 C 178.384 154.075,178.389 154.081,178.178 154.555 C 177.967 155.029,177.972 155.035,178.268 154.665 C 178.440 154.451,178.529 154.113,178.466 153.916 C 178.382 153.649,178.433 153.587,178.666 153.676 C 178.873 153.756,178.979 153.683,178.979 153.463 C 178.979 153.262,178.880 153.180,178.729 153.256 C 178.591 153.326,178.642 153.249,178.842 153.086 C 179.042 152.923,179.200 152.736,179.193 152.671 C 179.150 152.294,179.197 152.139,179.329 152.219 C 179.412 152.269,179.596 152.185,179.738 152.031 C 179.880 151.877,179.925 151.752,179.838 151.751 C 179.751 151.751,179.670 151.471,179.657 151.130 C 179.645 150.788,179.543 150.450,179.430 150.379 C 179.317 150.308,178.887 149.259,178.475 148.048 C 178.063 146.837,177.663 145.801,177.586 145.746 C 177.509 145.691,177.160 144.840,176.810 143.855 C 176.460 142.870,176.099 142.014,176.008 141.953 C 175.916 141.892,175.790 141.662,175.728 141.441 C 175.425 140.374,174.323 137.428,174.192 137.339 C 174.110 137.283,173.693 136.201,173.266 134.935 C 172.839 133.669,172.421 132.584,172.338 132.525 C 172.254 132.466,171.855 131.475,171.452 130.323 C 171.048 129.171,170.647 128.183,170.561 128.127 C 170.424 128.038,169.331 125.133,169.017 124.024 C 168.955 123.804,168.833 123.576,168.746 123.518 C 168.659 123.460,168.270 122.475,167.880 121.329 C 167.490 120.183,167.095 119.195,167.002 119.132 C 166.908 119.070,166.781 118.839,166.718 118.619 C 166.400 117.493,165.311 114.604,165.171 114.516 C 165.083 114.460,164.663 113.378,164.237 112.112 C 163.812 110.846,163.372 109.712,163.260 109.592 C 163.148 109.472,162.791 108.594,162.468 107.640 C 162.144 106.686,161.823 105.906,161.755 105.906 C 161.687 105.906,161.279 104.868,160.847 103.600 L 160.062 101.295 158.712 100.397 C 157.263 99.433,157.157 99.387,157.157 99.712 M15.242 141.594 C 15.227 141.788,15.295 142.104,15.392 142.295 C 15.690 142.881,15.945 143.591,16.306 144.845 C 16.497 145.506,16.773 146.316,16.921 146.647 C 17.069 146.977,17.246 147.448,17.316 147.694 C 17.385 147.939,17.504 148.131,17.580 148.120 C 17.962 148.066,18.043 148.177,17.818 148.448 C 17.614 148.694,17.627 148.749,17.886 148.749 C 18.330 148.749,18.632 149.375,18.393 149.802 C 18.244 150.068,18.269 150.118,18.502 150.029 C 18.723 149.944,18.781 150.025,18.722 150.332 C 18.678 150.562,18.727 150.751,18.830 150.751 C 18.934 150.751,19.019 150.876,19.019 151.030 C 19.019 151.183,19.164 151.364,19.342 151.432 C 19.552 151.513,19.627 151.701,19.557 151.970 C 19.474 152.286,19.523 152.355,19.763 152.263 C 20.036 152.159,20.040 152.188,19.798 152.486 C 19.614 152.714,19.604 152.779,19.770 152.679 C 19.927 152.585,20.020 152.645,20.020 152.841 C 20.020 153.013,20.116 153.153,20.233 153.153 C 20.350 153.153,20.417 153.320,20.383 153.523 C 20.349 153.726,20.402 153.898,20.503 153.905 C 20.785 153.925,21.059 154.531,20.901 154.787 C 20.816 154.925,20.847 154.962,20.980 154.880 C 21.227 154.728,27.670 155.545,27.828 155.749 C 27.919 155.865,29.552 156.099,37.237 157.093 C 38.614 157.271,39.785 157.479,39.840 157.554 C 39.895 157.630,40.706 157.787,41.642 157.904 C 48.046 158.703,51.966 159.255,52.052 159.369 C 52.107 159.443,54.765 159.844,57.958 160.262 C 61.151 160.679,63.809 161.081,63.864 161.155 C 63.919 161.228,66.306 161.588,69.169 161.953 C 72.032 162.318,74.471 162.693,74.590 162.786 C 74.718 162.886,75.364 162.657,76.184 162.222 C 76.942 161.819,77.458 161.455,77.331 161.413 C 77.204 161.370,77.155 161.191,77.222 161.015 C 77.304 160.803,77.267 160.744,77.111 160.840 C 76.867 160.990,76.807 160.782,76.869 160.010 C 76.889 159.762,76.805 159.560,76.682 159.560 C 76.559 159.560,76.485 159.402,76.518 159.209 C 76.554 158.993,76.468 158.882,76.292 158.920 C 76.069 158.968,76.059 158.921,76.243 158.698 C 76.428 158.475,76.387 158.298,76.047 157.866 C 75.691 157.414,75.665 157.287,75.896 157.141 C 76.137 156.988,76.034 156.888,75.670 156.919 C 75.611 156.923,75.550 156.641,75.533 156.292 C 75.489 155.392,75.373 154.785,75.213 154.625 C 75.137 154.550,75.075 154.296,75.075 154.061 C 75.075 153.826,74.982 153.540,74.868 153.426 C 74.686 153.245,73.896 150.480,73.831 149.800 C 73.818 149.662,73.722 149.550,73.617 149.550 C 73.512 149.550,73.474 149.730,73.531 149.950 C 73.605 150.230,73.537 150.352,73.305 150.356 C 72.605 150.366,61.556 148.856,61.461 148.737 C 61.406 148.667,58.704 148.264,55.455 147.840 C 52.207 147.416,49.505 147.014,49.449 146.947 C 49.358 146.835,47.975 146.633,40.340 145.616 C 38.909 145.425,37.693 145.213,37.638 145.146 C 37.583 145.078,34.880 144.676,31.632 144.252 C 28.383 143.828,25.681 143.425,25.626 143.356 C 25.487 143.182,15.820 141.916,15.612 142.044 C 15.520 142.101,15.405 141.944,15.357 141.695 C 15.299 141.391,15.261 141.358,15.242 141.594 " stroke="none" fill="#0474bc" fill-rule="evenodd"></path><path id="path8" d="" stroke="none" fill="#207c58" fill-rule="evenodd"></path></g></svg>